<?xml version="1.0" standalone="no"?>
<!DOCTYPE svg PUBLIC "-//W3C//DTD SVG 20010904//EN"
 "http://www.w3.org/TR/2001/REC-SVG-20010904/DTD/svg10.dtd">
<svg version="1.0" xmlns="http://www.w3.org/2000/svg"
 width="1000.000000pt" height="1080.000000pt" viewBox="0 0 1000.000000 1080.000000"
 preserveAspectRatio="xMidYMid meet">

<g transform="translate(0.000000,1080.000000) scale(0.100000,-0.100000)"
fill="#000000" stroke="none">
<path d="M3563 9210 c-7 -8 -38 -11 -90 -9 l-78 4 9 -182 9 -181 33 5 c48 8
63 -8 56 -62 -3 -29 -1 -45 6 -45 6 0 13 21 15 48 4 46 4 46 3 -7 0 -30 5 -56
10 -58 10 -3 10 186 0 296 -2 33 -2 33 12 13 8 -12 43 -59 79 -104 l65 -83 -7
-60 c-3 -33 -7 -69 -8 -80 -1 -12 4 -20 13 -20 12 0 15 15 15 75 l0 75 68 3
68 3 -7 -47 c-5 -37 -4 -46 7 -42 8 3 13 14 12 24 -5 46 -4 400 1 414 5 13 -7
15 -73 15 -56 0 -77 -3 -70 -11 5 -6 8 -52 6 -103 -2 -86 -3 -91 -17 -70 -8
13 -38 50 -67 84 -29 34 -53 72 -55 88 -2 22 -6 25 -15 17z"/>
<path d="M4810 9214 c-59 -12 -91 -27 -115 -55 -50 -60 -23 -136 57 -158 36
-9 163 -30 191 -31 14 0 7 -28 -9 -34 -28 -11 -54 -6 -72 12 -15 15 -28 17
-83 12 -35 -4 -76 -6 -91 -4 -33 4 -34 -1 -8 -43 23 -38 61 -60 121 -69 24 -4
47 -12 51 -18 5 -8 8 -7 8 2 0 6 5 12 10 12 6 0 10 -18 10 -40 0 -22 5 -40 10
-40 6 0 10 16 8 37 l-3 36 71 12 c108 19 142 44 151 114 10 73 -48 109 -207
126 -67 7 -92 20 -70 35 18 13 68 5 89 -14 10 -8 25 -10 41 -5 14 4 51 7 83 8
l58 1 -17 29 c-28 48 -80 70 -175 75 -46 3 -95 2 -109 0z"/>
<path d="M7500 9214 c-89 -18 -140 -60 -140 -118 0 -66 51 -97 194 -116 90
-12 101 -16 85 -36 -16 -20 -66 -17 -87 4 -16 16 -28 17 -85 12 -36 -4 -78 -5
-92 -2 -26 5 -26 4 -12 -29 17 -44 67 -77 128 -85 48 -6 48 -7 52 -48 l4 -41
1 43 c2 44 14 54 31 25 10 -17 10 -17 11 0 0 13 9 17 38 17 96 0 182 59 182
124 0 69 -47 100 -178 117 -100 13 -126 23 -102 39 18 13 68 5 89 -14 10 -8
25 -10 41 -5 14 4 51 7 83 8 31 1 57 3 57 6 0 18 -39 59 -72 76 -39 20 -173
33 -228 23z"/>
<path d="M2504 9199 c-23 -5 -59 -25 -82 -45 -76 -65 -80 -187 -9 -261 17 -18
46 -38 64 -44 20 -6 33 -17 33 -27 0 -13 2 -14 9 -4 5 9 25 12 62 10 l54 -3
-3 -32 c-2 -19 1 -33 7 -33 6 0 11 15 11 33 0 32 1 33 58 43 32 6 75 20 97 30
l40 19 0 80 0 80 -110 0 -110 0 0 -46 0 -46 35 4 c31 4 36 2 37 -16 2 -19 -3
-21 -58 -21 -71 0 -93 10 -114 50 -31 61 -12 124 44 141 44 13 90 -2 98 -31 4
-15 11 -19 25 -14 11 3 51 6 88 6 l68 0 -20 35 c-50 83 -187 122 -324 92z"/>
<path d="M2918 8983 c2 -127 -1 -247 -7 -279 -12 -62 -1 -95 24 -74 9 7 11 37
7 105 -5 93 -4 94 19 100 13 3 101 5 194 3 l170 -3 0 50 0 50 -127 -3 -127 -3
-3 -27 c-3 -17 -5 -9 -8 23 l-5 50 98 -2 c54 -1 104 -3 110 -6 8 -3 12 11 12
47 l0 51 -110 -2 -110 -1 -1 29 c-1 18 3 26 10 21 6 -3 65 -7 131 -7 l120 0 0
47 0 47 -200 3 -200 3 3 -222z"/>
<path d="M5327 8995 c2 -138 6 -209 13 -207 5 1 10 -14 10 -33 0 -19 5 -35 10
-35 6 0 10 22 10 50 0 40 -3 48 -15 44 -11 -4 -15 0 -15 16 0 19 2 20 15 10
10 -9 15 -9 15 -1 0 14 55 14 81 1 13 -7 19 -22 20 -48 l2 -37 6 40 6 40 96 6
c153 9 199 50 199 180 0 79 -23 121 -84 153 -33 17 -66 21 -205 25 l-166 6 2
-210z m285 94 c41 -22 33 -123 -12 -146 -14 -7 -49 -13 -77 -13 l-53 0 0 79
c0 44 -2 86 -5 94 -5 11 5 12 61 5 38 -5 76 -14 86 -19z"/>
<path d="M6365 9020 l0 -185 72 3 72 4 4 -44 4 -43 1 41 2 42 93 4 c147 6 199
48 205 166 4 84 -17 127 -79 161 -39 23 -58 25 -209 30 l-165 6 0 -185z m276
75 c29 -9 44 -60 30 -105 -13 -44 -45 -60 -117 -60 l-44 0 0 79 c0 44 -2 86
-5 94 -5 12 4 12 57 5 35 -4 70 -11 79 -13z"/>
<path d="M6889 8960 c0 -135 -1 -265 -2 -290 -2 -34 2 -45 13 -45 13 0 14 16
12 96 -3 75 0 98 12 108 11 9 63 11 198 9 l183 -3 0 50 0 50 -132 -3 c-84 -2
-133 0 -133 6 0 6 -2 16 -5 24 -4 10 16 13 104 11 l109 -3 4 48 3 47 -111 -1
c-108 0 -111 0 -111 21 0 21 3 22 126 21 l127 -1 0 47 0 47 -198 3 -199 3 0
-245z m148 -72 c-3 -8 -6 -5 -6 6 -1 11 2 17 5 13 3 -3 4 -12 1 -19z"/>
<path d="M3939 8970 c-1 -126 -2 -235 -3 -242 -1 -6 5 -13 11 -15 9 -3 12 10
10 50 -2 65 12 87 59 87 44 0 54 -21 54 -109 0 -39 3 -71 8 -71 4 0 8 119 10
265 l3 265 -75 0 -76 0 -1 -230z"/>
<path d="M4170 9060 c3 -79 10 -144 18 -157 21 -37 62 -62 113 -69 l49 -7 0
-68 c0 -39 4 -69 10 -69 6 0 10 29 10 66 0 48 3 64 13 61 7 -2 11 -20 10 -46
-1 -22 2 -41 8 -41 5 0 9 23 9 51 0 36 4 49 13 46 18 -6 109 22 130 41 35 32
42 58 47 192 l5 135 -75 0 -75 0 0 -116 c0 -101 -3 -120 -19 -138 -24 -26 -66
-27 -97 -2 -23 18 -24 25 -24 138 l0 118 -75 0 -75 0 5 -135z"/>
<path d="M5850 9060 c3 -80 10 -144 17 -157 22 -37 63 -62 115 -69 l49 -7 -1
-56 c-2 -77 -2 -81 11 -81 8 0 10 15 6 46 -6 56 1 87 19 80 7 -3 16 -1 19 4
13 21 24 8 28 -32 l4 -43 1 41 c2 41 3 42 50 54 92 23 105 50 112 220 l5 135
-75 0 -75 0 0 -116 c0 -101 -3 -120 -19 -138 -28 -31 -79 -28 -106 6 -19 25
-21 37 -18 138 l3 110 -75 0 -75 0 5 -135z"/>
<path d="M3397 8784 c-6 -39 -3 -54 14 -54 11 0 12 60 0 78 -5 9 -10 2 -14
-24z"/>
<path d="M4430 8780 c0 -16 4 -30 8 -30 5 0 7 14 4 30 -2 17 -6 30 -8 30 -2 0
-4 -13 -4 -30z"/>
<path d="M7570 8780 c0 -11 5 -20 10 -20 6 0 10 9 10 20 0 11 -4 20 -10 20 -5
0 -10 -9 -10 -20z"/>
<path d="M4846 8781 c-4 -7 -5 -15 -2 -18 9 -9 19 4 14 18 -4 11 -6 11 -12 0z"/>
<path d="M6076 8767 c-5 -15 -6 -31 -2 -34 11 -11 18 5 14 34 l-4 28 -8 -28z"/>
<path d="M2507 8751 c-11 -52 -8 -71 8 -71 16 0 20 49 6 85 -7 16 -9 14 -14
-14z"/>
<path d="M5470 8694 c0 -14 4 -23 9 -20 5 3 7 15 4 26 -7 28 -13 25 -13 -6z"/>
<path d="M6110 8701 c0 -12 5 -21 10 -21 6 0 10 6 10 14 0 8 -4 18 -10 21 -5
3 -10 -3 -10 -14z"/>
<path d="M4430 8695 c0 -8 5 -15 10 -15 6 0 10 7 10 15 0 8 -4 15 -10 15 -5 0
-10 -7 -10 -15z"/>
<path d="M4950 8498 c0 -5 -4 -6 -10 -3 -5 3 -10 1 -10 -6 0 -7 -2 -10 -5 -7
-9 9 -71 -56 -67 -69 2 -7 -1 -13 -7 -13 -6 0 -11 -16 -11 -35 0 -19 5 -35 10
-35 6 0 10 -6 8 -12 -3 -13 50 -73 64 -73 3 0 9 -3 13 -7 4 -4 13 -4 21 -1 19
7 30 -25 16 -47 -6 -10 -8 -27 -5 -39 3 -13 1 -21 -7 -21 -7 0 -9 -8 -5 -20 4
-12 2 -20 -5 -20 -7 0 -10 -7 -7 -15 4 -8 2 -17 -3 -20 -5 -3 -7 -12 -3 -20 3
-8 0 -15 -7 -15 -7 0 -9 -8 -5 -20 4 -12 2 -20 -5 -20 -7 0 -10 -7 -6 -15 3
-8 1 -15 -5 -15 -6 0 -9 -7 -5 -15 3 -8 1 -15 -5 -15 -6 0 -9 -7 -5 -15 3 -8
1 -15 -5 -15 -6 0 -9 -7 -6 -15 4 -8 2 -17 -4 -20 -5 -4 -7 -11 -4 -16 4 -5 1
-9 -5 -9 -7 0 -10 -7 -6 -15 3 -8 1 -15 -5 -15 -6 0 -9 -7 -5 -15 3 -8 1 -15
-4 -15 -5 0 -6 -7 -3 -17 4 -11 3 -14 -5 -9 -8 5 -10 2 -6 -8 3 -9 1 -16 -6
-16 -6 0 -8 -4 -5 -10 3 -5 1 -10 -5 -10 -6 0 -8 -4 -5 -10 3 -5 1 -10 -5 -10
-6 0 -8 -5 -5 -10 3 -6 -1 -13 -9 -16 -9 -3 -14 -10 -11 -14 3 -5 -3 -13 -12
-19 -10 -6 -14 -11 -9 -11 6 0 -3 -13 -19 -30 -15 -16 -32 -27 -37 -24 -4 3
-11 -2 -14 -10 -3 -9 -10 -13 -15 -10 -5 3 -9 0 -9 -6 0 -6 -4 -8 -10 -5 -5 3
-10 2 -10 -4 0 -6 -7 -8 -15 -5 -8 4 -15 2 -15 -2 0 -7 -100 -10 -120 -3 -3 1
-8 1 -12 0 -5 0 -8 4 -8 11 0 6 -3 8 -7 5 -3 -4 -15 1 -26 10 -15 13 -19 14
-13 3 4 -8 -2 -3 -14 13 -12 15 -26 25 -31 21 -5 -3 -12 2 -15 10 -3 9 -10 14
-14 11 -4 -3 -15 7 -24 20 -10 14 -22 23 -28 19 -7 -4 -8 -3 -4 4 3 6 -3 16
-14 22 -11 6 -18 15 -15 20 3 5 -4 14 -15 20 -11 6 -18 15 -15 20 3 4 -7 18
-22 30 -16 12 -21 19 -13 15 8 -4 6 1 -5 10 -11 9 -20 20 -20 26 0 5 -7 14
-15 19 -8 5 -15 14 -15 19 0 6 -9 17 -20 26 -11 9 -13 14 -5 10 8 -4 4 3 -10
15 -14 12 -18 19 -10 15 8 -4 6 1 -5 10 -11 9 -19 21 -17 26 1 5 -5 12 -13 15
-8 3 -12 10 -9 15 3 5 0 9 -6 9 -6 0 -8 5 -5 10 3 6 1 10 -5 10 -6 0 -8 5 -5
10 4 6 10 8 14 5 5 -2 19 7 32 22 13 14 17 23 9 19 -9 -5 -8 -2 2 7 10 8 15
17 11 20 -3 4 0 13 6 21 9 10 9 16 1 21 -6 4 -9 13 -6 21 3 8 0 14 -6 14 -6 0
-9 3 -6 6 9 8 -53 65 -63 58 -5 -3 -9 -2 -9 3 0 4 -20 8 -45 9 -25 0 -45 -3
-45 -9 0 -5 -6 -7 -14 -4 -8 3 -17 -1 -20 -9 -3 -9 -10 -13 -15 -10 -5 3 -14
-1 -21 -9 -7 -8 -9 -15 -4 -15 5 0 2 -6 -6 -13 -16 -13 -23 -78 -10 -87 5 -3
10 -12 12 -19 5 -22 31 -51 40 -45 4 3 8 1 8 -5 0 -6 7 -8 15 -5 8 4 15 1 15
-5 0 -8 14 -11 38 -9 25 2 36 -1 35 -9 -2 -7 2 -13 8 -13 6 0 8 -9 4 -21 -5
-15 -4 -19 4 -14 8 5 10 -1 5 -19 -4 -17 -2 -26 6 -26 7 0 9 -8 5 -20 -4 -12
-2 -20 5 -20 7 0 9 -8 5 -19 -3 -11 -1 -22 5 -26 7 -4 9 -19 5 -36 -4 -16 -3
-29 2 -29 10 0 9 -197 -2 -222 -4 -9 -4 -21 -1 -27 4 -5 2 -12 -4 -16 -6 -4
-8 -11 -5 -16 4 -5 1 -9 -5 -9 -6 0 -8 -4 -5 -10 3 -5 1 -10 -5 -10 -6 0 -9
-4 -6 -9 7 -11 -38 -53 -47 -44 -4 3 -7 1 -7 -5 0 -7 -3 -11 -7 -11 -5 1 -10
0 -13 -1 -3 -1 -33 -3 -68 -5 -40 -2 -60 0 -56 7 4 6 -1 8 -15 3 -13 -4 -21
-2 -21 5 0 6 -4 8 -10 5 -5 -3 -10 -1 -10 5 0 6 -4 8 -10 5 -5 -3 -10 -1 -10
5 0 6 -4 8 -10 5 -5 -3 -10 -1 -10 5 0 6 -5 8 -10 5 -6 -3 -13 1 -16 9 -3 9
-10 14 -15 11 -4 -3 -13 4 -19 15 -6 11 -15 18 -19 16 -4 -3 -18 8 -30 25 -12
16 -26 27 -30 25 -10 -7 -113 98 -105 107 4 4 -1 9 -10 13 -15 6 -15 7 1 21
11 9 12 12 3 8 -13 -6 -13 -5 0 7 24 21 19 78 -10 108 -14 14 -31 24 -37 22
-7 -2 -13 1 -13 7 0 6 -11 11 -25 11 -14 0 -25 -5 -25 -11 0 -6 -7 -9 -15 -5
-8 3 -15 0 -15 -6 0 -6 -3 -8 -7 -5 -10 11 -42 -23 -36 -39 3 -8 0 -14 -6 -14
-6 0 -11 -9 -11 -20 0 -11 5 -20 11 -20 6 0 9 -6 6 -14 -6 -16 26 -50 36 -39
4 3 7 1 7 -6 0 -7 5 -9 10 -6 6 3 10 1 10 -4 0 -6 14 -11 30 -11 17 0 30 5 30
10 0 7 7 7 20 0 11 -6 18 -15 15 -20 -3 -4 19 -29 47 -55 29 -26 46 -44 38
-40 -8 3 -3 -3 13 -15 15 -12 25 -26 22 -30 -3 -5 4 -14 15 -20 11 -6 18 -15
15 -20 -3 -5 4 -14 15 -20 11 -6 19 -15 17 -20 -1 -5 7 -16 18 -25 11 -9 13
-14 5 -10 -8 4 -4 -3 10 -15 14 -12 18 -19 10 -15 -10 4 -9 2 2 -8 10 -8 15
-17 11 -20 -3 -4 2 -9 11 -13 9 -3 13 -10 10 -15 -3 -5 2 -12 10 -15 9 -3 14
-10 11 -14 -3 -4 2 -11 11 -14 8 -3 12 -10 9 -16 -3 -5 -1 -10 5 -10 6 0 8 -4
5 -10 -3 -5 -1 -10 5 -10 6 0 8 -4 5 -10 -3 -5 -1 -10 5 -10 6 0 8 -4 5 -10
-3 -5 -2 -10 4 -10 6 0 15 -10 22 -21 8 -16 8 -20 -1 -14 -8 5 -7 0 2 -14 7
-12 16 -21 21 -21 4 0 6 -4 3 -9 -3 -5 1 -14 10 -21 8 -7 13 -19 10 -27 -3 -7
-1 -13 5 -13 6 0 7 -4 4 -10 -3 -5 -1 -10 4 -10 6 0 10 -6 9 -12 -2 -10 227
-14 1115 -16 747 -1 1116 1 1112 8 -3 5 -1 10 5 10 6 0 8 5 5 10 -3 6 -1 10 5
10 6 0 8 5 5 10 -3 6 -1 10 5 10 7 0 9 7 6 16 -4 10 -2 13 6 8 7 -5 9 -2 5 9
-3 9 1 18 9 21 9 3 14 12 12 18 -3 7 4 21 13 32 10 10 16 23 13 28 -3 4 0 8 6
8 6 0 8 5 5 10 -3 6 -1 10 5 10 6 0 8 5 5 10 -3 6 -1 10 5 10 6 0 8 4 5 10 -3
5 7 22 22 37 15 14 21 23 13 19 -9 -5 -8 -2 2 7 10 8 15 17 11 20 -3 4 2 9 11
13 9 3 13 10 10 15 -3 5 2 12 10 15 9 3 13 10 10 15 -3 5 2 12 10 15 9 3 14
10 11 15 -3 4 4 13 15 19 11 6 18 15 15 20 -3 5 4 14 15 20 11 6 19 14 17 19
-1 5 9 18 23 30 14 13 18 20 10 16 -8 -4 2 8 22 25 21 18 36 36 33 40 -10 15
70 69 93 63 12 -3 30 -2 39 2 10 5 21 7 26 7 4 -1 7 4 7 12 0 8 9 18 20 21 11
4 18 11 15 16 -4 5 -1 9 4 9 6 0 11 11 11 25 0 14 -5 25 -11 25 -6 0 -9 6 -7
13 5 13 -37 58 -46 49 -3 -3 -6 0 -6 6 0 7 -15 12 -35 12 -19 0 -35 -5 -35
-11 0 -5 -5 -7 -11 -4 -11 7 -56 -34 -52 -47 2 -5 -2 -8 -7 -8 -6 0 -10 -13
-10 -30 0 -16 5 -30 11 -30 5 0 8 -4 4 -9 -3 -6 2 -14 11 -19 9 -5 14 -12 12
-16 -6 -13 -163 -170 -170 -171 -4 0 -14 -9 -23 -20 -9 -11 -14 -13 -10 -5 4
8 -1 6 -10 -5 -9 -11 -21 -19 -26 -17 -5 1 -9 -3 -9 -10 0 -6 -3 -9 -6 -5 -4
3 -13 -1 -21 -9 -8 -8 -19 -12 -24 -9 -5 4 -9 1 -9 -5 0 -6 -4 -8 -10 -5 -5 3
-10 1 -10 -5 0 -7 -7 -10 -15 -6 -8 3 -15 2 -15 -2 0 -9 -92 -8 -108 2 -6 4
-12 4 -12 0 0 -4 -7 1 -16 12 -8 10 -12 12 -8 4 4 -8 -6 -1 -22 15 -16 17 -29
34 -29 38 0 4 -7 12 -15 17 -8 5 -11 10 -6 10 5 0 3 6 -3 13 -6 8 -8 17 -4 20
3 4 1 7 -6 7 -8 0 -11 6 -7 16 3 9 3 21 -1 27 -11 18 -11 137 0 137 6 0 7 16
3 39 -3 23 -2 42 4 46 6 3 7 17 4 31 -4 15 -2 24 6 24 8 0 10 9 6 25 -4 15 -2
25 4 25 6 0 8 11 4 26 -5 21 -4 25 6 19 10 -6 12 -3 8 13 -4 12 -2 22 4 22 6
0 8 7 4 15 -3 8 -1 15 5 15 6 0 7 5 3 12 -5 8 4 9 34 4 26 -4 42 -2 42 4 0 5
7 10 15 10 19 0 70 52 67 68 -2 6 2 12 8 12 13 0 13 47 0 55 -6 4 -8 11 -5 16
6 8 -9 13 -29 10 -5 -1 -3 6 5 15 9 12 10 15 1 10 -7 -4 -15 -1 -18 8 -3 9
-10 13 -15 10 -5 -3 -9 -1 -9 5 0 6 -7 8 -15 5 -8 -4 -15 -2 -15 2 0 5 -20 9
-45 10 -26 1 -42 -3 -38 -9 3 -5 0 -7 -8 -5 -8 3 -20 -2 -27 -11 -11 -13 -12
-13 -6 -1 5 10 0 9 -14 -4 -24 -21 -29 -30 -9 -21 6 4 4 0 -5 -8 -10 -8 -15
-17 -11 -20 3 -4 2 -7 -4 -7 -6 0 -11 -16 -10 -35 1 -19 5 -35 10 -35 4 0 6
-4 2 -9 -3 -6 4 -15 15 -21 23 -12 56 -70 40 -70 -6 0 -8 -4 -5 -10 3 -5 1
-10 -5 -10 -6 0 -8 -4 -5 -10 3 -5 1 -10 -5 -10 -6 0 -9 -4 -6 -9 3 -5 -1 -12
-10 -15 -8 -3 -13 -10 -10 -15 3 -5 -1 -12 -10 -15 -8 -3 -13 -10 -9 -15 3 -6
-4 -15 -15 -21 -11 -6 -19 -14 -17 -19 1 -4 -11 -20 -28 -35 -16 -15 -23 -24
-15 -20 8 4 -12 -21 -44 -54 -33 -34 -64 -58 -69 -55 -6 3 -7 1 -4 -4 4 -6 -1
-17 -10 -24 -14 -12 -16 -12 -9 1 4 8 -2 4 -15 -10 -12 -14 -25 -24 -30 -23
-5 2 -13 -6 -19 -17 -6 -11 -15 -18 -21 -15 -5 4 -9 1 -9 -5 0 -6 -5 -8 -10
-5 -6 3 -13 -1 -16 -9 -3 -9 -10 -13 -15 -10 -5 3 -9 0 -9 -6 0 -6 -4 -8 -10
-5 -5 3 -10 2 -10 -4 0 -6 -7 -8 -15 -5 -8 4 -15 1 -15 -6 0 -6 -4 -8 -10 -5
-5 3 -10 2 -10 -3 0 -4 -22 -8 -50 -8 -27 1 -50 5 -50 9 0 5 -4 5 -10 2 -5 -3
-10 -1 -10 4 0 6 -4 10 -8 8 -9 -2 -77 62 -77 74 0 5 -9 15 -20 24 -11 9 -13
14 -5 10 10 -4 9 -2 -2 8 -10 8 -15 17 -11 20 3 4 -2 9 -11 13 -9 3 -13 10
-10 15 3 5 0 9 -6 9 -6 0 -8 5 -5 10 3 6 1 10 -5 10 -6 0 -8 5 -5 10 3 6 2 10
-4 10 -6 0 -7 7 -4 17 5 12 3 14 -7 8 -10 -6 -12 -4 -7 8 3 10 2 17 -4 17 -6
0 -7 5 -4 10 3 6 2 10 -4 10 -6 0 -8 7 -5 15 4 8 1 15 -6 15 -7 0 -10 7 -6 15
3 8 1 15 -4 15 -5 0 -7 7 -4 15 4 8 1 15 -6 15 -7 0 -10 7 -6 15 3 8 1 15 -5
15 -6 0 -8 9 -4 20 4 12 2 20 -5 20 -7 0 -10 7 -6 15 3 8 1 15 -5 15 -6 0 -8
9 -4 20 4 12 2 20 -5 20 -7 0 -10 7 -7 15 4 8 2 17 -4 21 -6 3 -8 12 -5 20 3
7 1 16 -5 20 -6 3 -8 13 -4 22 3 8 2 18 -3 21 -5 3 -7 23 -4 44 3 27 8 37 18
33 8 -3 14 -1 14 5 0 6 4 8 9 5 5 -3 12 1 15 9 3 8 11 14 18 13 7 -2 17 7 23
20 5 12 13 22 17 22 4 0 5 7 2 15 -4 8 -1 15 5 15 6 0 11 11 11 25 0 14 -5 25
-11 25 -6 0 -9 7 -5 15 3 8 1 15 -4 15 -6 0 -9 3 -7 8 1 4 -9 18 -23 32 -14
14 -28 24 -32 23 -5 -2 -8 2 -8 8 0 5 -4 7 -10 4 -5 -3 -10 -3 -10 2 0 4 -25
8 -55 9 -30 0 -55 -3 -55 -8z m1540 -921 c0 -2 -10 -12 -22 -23 l-23 -19 19
23 c18 21 26 27 26 19z"/>
<path d="M4879 8463 c-13 -16 -12 -17 4 -4 9 7 17 15 17 17 0 8 -8 3 -21 -13z"/>
<path d="M7587 7574 c-4 -4 -3 -12 1 -18 4 -6 7 -59 7 -117 0 -88 3 -110 18
-126 23 -26 22 -39 -14 -162 -45 -153 -49 -171 -42 -217 7 -56 -21 -108 -93
-170 -86 -73 -134 -68 -196 19 -16 22 -24 59 -34 160 -11 109 -19 141 -42 187
-42 80 -92 108 -194 109 -42 1 -80 -3 -83 -9 -3 -5 -14 -10 -23 -10 -10 0 -33
-8 -52 -18 -19 -11 -47 -22 -62 -26 -18 -4 -25 -11 -22 -20 3 -9 -6 -18 -27
-25 -22 -7 -29 -15 -25 -26 4 -11 -3 -19 -20 -25 -21 -8 -24 -13 -15 -24 9
-11 4 -18 -24 -35 -39 -23 -39 -41 1 -41 22 0 24 -4 24 -52 0 -70 16 -125 40
-138 17 -9 20 -21 20 -84 0 -68 2 -74 25 -84 14 -6 25 -18 25 -25 0 -7 11 -35
24 -63 60 -126 78 -185 71 -233 -4 -25 -13 -54 -21 -65 -8 -11 -14 -28 -14
-38 0 -9 -11 -28 -24 -41 -30 -30 -61 -125 -52 -160 3 -15 19 -33 34 -41 l27
-15 -27 -1 c-59 0 -80 -81 -28 -107 25 -12 24 -13 -12 -13 -39 0 -58 -19 -58
-58 0 -22 18 -32 58 -32 25 -1 26 -1 7 -12 -10 -6 -33 -14 -50 -18 -26 -5 -32
-12 -43 -57 -10 -43 -10 -59 2 -92 7 -23 10 -43 6 -46 -5 -3 -8 -79 -8 -168 1
-157 0 -165 -21 -186 -15 -15 -20 -28 -16 -39 10 -22 6 -292 -4 -346 -4 -23
-4 -52 0 -64 5 -13 4 -22 -1 -22 -6 0 -10 -11 -10 -25 0 -19 -5 -25 -20 -25
-13 0 -28 -12 -38 -30 -9 -16 -20 -30 -23 -30 -4 0 -30 -15 -58 -34 -28 -19
-64 -37 -81 -41 -44 -10 -46 -22 -12 -70 22 -31 27 -45 18 -48 -7 -3 -28 -32
-46 -64 -18 -32 -56 -92 -86 -134 -29 -41 -73 -115 -99 -165 -25 -49 -55 -100
-66 -115 -11 -14 -21 -36 -23 -50 -2 -13 -11 -41 -20 -62 -9 -22 -16 -51 -15
-65 5 -64 -2 -92 -31 -125 -30 -35 -175 -273 -250 -412 -65 -121 -138 -222
-184 -255 -22 -16 -46 -33 -51 -38 -6 -5 -23 -12 -38 -16 -14 -3 -41 -19 -59
-35 -40 -34 -104 -51 -196 -51 -86 0 -101 -12 -81 -67 25 -65 53 -77 186 -78
127 -1 163 -11 181 -50 8 -16 28 -29 66 -41 52 -17 62 -16 196 1 86 11 156 15
183 10 23 -4 53 -9 67 -11 14 -1 54 -10 90 -18 36 -9 97 -16 136 -16 100 0
141 24 221 129 35 45 63 87 63 93 0 6 -24 -15 -53 -45 -29 -31 -66 -61 -83
-67 -27 -10 -27 -9 11 23 38 33 39 35 29 73 -5 22 -15 38 -21 37 -7 -2 -36 -4
-65 -5 l-53 -2 -28 -54 -27 -53 34 -14 c41 -18 52 -31 30 -39 -24 -9 -70 -7
-122 5 -58 15 -74 27 -67 50 4 11 -8 38 -31 72 -27 41 -46 58 -74 67 -31 10
-40 20 -51 52 -14 45 -4 86 37 148 13 19 24 41 24 48 0 27 31 72 67 97 38 25
100 34 119 16 9 -9 99 4 143 21 l25 9 -25 17 c-21 15 -24 24 -22 69 3 68 36
182 76 258 45 84 188 225 313 308 218 145 343 160 514 61 181 -104 255 -121
392 -93 73 15 362 156 543 266 83 50 182 104 220 120 77 33 212 63 411 93 71
10 143 25 160 31 16 7 32 12 35 11 4 -1 10 10 13 23 7 29 26 31 106 14 88 -19
130 5 130 72 0 85 -75 190 -167 235 -53 27 -67 29 -173 29 -114 0 -116 1 -206
43 -126 58 -148 57 -212 -13 -28 -30 -58 -74 -67 -98 -13 -35 -25 -48 -60 -65
-63 -30 -293 -82 -410 -93 -100 -9 -185 -36 -265 -84 -53 -33 -62 -33 -86 -6
-17 20 -20 29 -11 39 8 10 6 22 -8 48 -10 19 -21 34 -24 34 -11 0 -10 41 1 68
6 15 12 32 13 37 0 6 7 9 14 7 7 -1 10 2 7 7 -9 13 39 44 104 69 49 18 58 18
75 6 32 -24 66 -13 88 26 18 33 18 38 4 82 -8 27 -13 48 -11 48 3 0 15 -7 29
-16 18 -12 28 -13 44 -4 29 15 26 34 -15 96 -20 30 -34 58 -30 61 4 4 31 -5
62 -20 48 -24 55 -25 61 -11 9 23 -8 45 -52 70 -25 15 -46 38 -62 70 -14 27
-35 60 -47 74 -40 43 -46 80 -39 248 6 172 -4 256 -37 302 -14 20 -20 44 -20
84 0 41 -5 60 -19 73 -10 10 -21 32 -25 48 -4 17 -14 38 -23 47 -13 15 -13 30
-3 115 6 54 18 166 26 248 7 83 18 173 23 200 6 28 15 98 21 157 8 87 15 114
35 144 l25 37 -6 191 -7 191 27 52 c33 66 38 180 9 189 -10 3 -35 14 -55 25
-20 11 -57 21 -83 23 -25 2 -54 11 -64 20 -18 16 -43 21 -54 10z"/>
<path d="M2378 7559 c-10 -5 -18 -17 -18 -25 0 -12 -4 -13 -21 -3 -15 8 -24 8
-32 0 -6 -6 -22 -11 -35 -11 -13 0 -36 -8 -50 -19 -15 -10 -36 -20 -47 -22
-17 -4 -20 -13 -23 -68 -3 -57 0 -69 29 -115 l31 -51 -7 -196 -7 -196 25 -29
c20 -24 25 -44 30 -114 3 -47 13 -119 22 -160 9 -41 23 -147 31 -235 21 -232
28 -293 37 -301 4 -4 2 -13 -4 -21 -8 -9 -8 -13 -1 -13 6 0 0 -11 -13 -25 -14
-13 -26 -31 -26 -40 -1 -8 -2 -21 -3 -27 -1 -7 -10 -18 -21 -23 -16 -8 -21
-22 -23 -68 -2 -41 1 -57 10 -58 7 0 3 -4 -9 -9 -16 -6 -27 -26 -39 -67 -14
-48 -16 -87 -12 -232 6 -194 0 -232 -44 -276 -16 -16 -40 -50 -54 -76 -13 -26
-32 -50 -43 -54 -33 -10 -71 -46 -71 -66 0 -25 9 -24 61 6 46 26 79 32 79 15
0 -5 -16 -30 -35 -56 -19 -25 -35 -56 -35 -69 0 -34 27 -39 55 -11 l25 25 -6
-70 c-5 -48 -3 -69 5 -69 6 0 11 -7 11 -15 0 -31 64 -87 146 -126 63 -30 88
-47 100 -70 22 -43 12 -115 -19 -147 l-24 -23 -64 35 c-93 51 -143 67 -244 76
-180 16 -473 102 -462 135 7 17 -28 77 -74 129 l-43 48 -58 -5 c-38 -3 -76
-15 -111 -35 -69 -39 -136 -52 -228 -45 -68 5 -83 3 -132 -20 -101 -46 -176
-145 -177 -232 0 -48 7 -61 40 -73 23 -9 116 5 162 23 16 6 16 5 2 -23 -11
-24 -12 -35 -3 -56 20 -44 91 -65 274 -82 224 -20 387 -77 631 -220 144 -84
392 -207 474 -234 56 -19 96 -25 157 -25 l82 0 157 80 157 79 86 0 c65 0 99
-6 140 -23 47 -19 187 -103 201 -120 3 -3 24 -19 48 -35 77 -52 195 -187 235
-267 20 -41 37 -86 39 -101 2 -15 7 -30 11 -34 4 -4 7 -35 7 -70 0 -62 0 -62
-34 -74 -76 -25 -183 -132 -173 -172 3 -10 1 -16 -4 -13 -12 8 -22 -40 -15
-71 5 -18 3 -24 -4 -19 -8 5 -10 -7 -5 -41 9 -60 27 -104 65 -165 17 -25 30
-53 30 -63 0 -28 46 -87 92 -117 66 -44 130 -53 235 -34 218 39 219 39 375 20
155 -19 216 -16 275 11 48 23 59 57 34 100 l-20 34 26 6 c14 4 64 4 112 1 99
-6 145 5 172 43 51 72 27 105 -70 97 -82 -6 -143 9 -200 51 -49 35 -76 40 -85
16 -4 -9 -9 -14 -13 -11 -3 4 0 13 7 22 7 9 11 17 9 19 -2 1 -20 12 -40 24
-64 39 -119 116 -254 362 -71 129 -127 219 -189 305 -21 29 -36 62 -36 77 0
20 -5 28 -17 28 -17 1 -17 1 0 11 39 23 10 104 -41 112 l-27 4 28 2 c15 0 27
5 27 10 0 22 -23 68 -45 91 -13 14 -31 45 -40 69 -8 24 -53 101 -99 170 -46
69 -94 147 -107 173 l-22 47 -36 -30 c-61 -50 -56 -32 13 42 36 39 66 75 66
79 0 4 -15 11 -34 14 -18 4 -60 24 -93 45 l-59 38 -29 -23 c-38 -30 -46 -22
-9 10 29 24 29 24 9 46 -13 14 -27 20 -43 17 -21 -4 -23 -2 -17 21 3 14 1 28
-5 32 -7 4 -8 15 -2 31 6 14 6 34 1 47 -5 13 -12 83 -16 155 -5 103 -10 135
-22 144 -14 10 -13 11 5 7 19 -5 22 -1 26 31 3 22 -2 44 -11 58 -22 32 -23 38
-23 200 0 119 -2 149 -14 154 -11 4 -10 10 6 30 23 29 25 68 8 124 -10 35 -15
39 -44 39 -20 0 -34 6 -38 16 -9 23 -8 24 24 24 38 0 48 22 26 54 -13 21 -21
24 -51 19 -27 -4 -35 -2 -35 10 0 8 11 18 24 21 30 7 39 29 24 61 -9 19 -19
25 -45 25 -18 0 -33 3 -33 6 0 3 14 17 30 31 36 29 37 53 10 125 -31 83 -35
86 -60 57 -12 -13 -18 -17 -13 -9 4 8 8 49 9 90 0 64 6 88 38 165 87 205 107
265 108 328 1 34 10 89 20 121 13 40 17 71 13 98 -6 36 -5 38 18 38 57 0 59
12 5 38 -41 19 -48 26 -33 30 27 5 44 22 23 22 -9 0 -29 5 -45 11 l-28 11 30
13 c30 13 30 13 5 15 -14 1 -41 8 -60 15 -27 10 -30 14 -13 14 44 2 31 19 -18
25 -39 5 -49 10 -45 21 4 12 -4 15 -35 15 -29 0 -40 4 -36 13 3 9 -16 12 -77
11 -99 0 -135 -4 -118 -11 9 -3 -2 -12 -26 -23 -39 -18 -71 -46 -36 -33 10 4
0 -10 -22 -31 -21 -21 -31 -35 -21 -32 16 5 16 4 0 -20 -12 -20 -18 -58 -23
-150 -5 -116 -7 -125 -36 -166 -35 -50 -75 -73 -122 -69 -26 1 -46 14 -88 59
-76 78 -95 117 -88 178 5 39 -2 74 -30 167 -39 129 -45 187 -20 208 13 10 15
32 13 121 -3 87 -1 111 11 119 13 8 13 10 0 19 -18 12 -21 12 -42 -1z m-1108
-3039 c0 -13 -5 -18 -15 -14 -11 5 -12 9 -2 20 16 18 17 17 17 -6z m-163 -52
c-3 -8 -6 -5 -6 6 -1 11 2 17 5 13 3 -3 4 -12 1 -19z m2796 -785 c-7 -2 -19
-2 -25 0 -7 3 -2 5 12 5 14 0 19 -2 13 -5z m-261 -516 c-9 -10 -4 -12 22 -9
18 2 49 -1 69 -6 22 -6 39 -7 43 -1 3 5 22 9 43 9 53 0 115 -43 137 -94 9 -23
28 -63 41 -90 24 -52 32 -139 13 -151 -6 -4 -7 -12 -4 -18 4 -7 4 -9 -1 -5 -4
4 -21 0 -37 -8 -16 -8 -34 -12 -40 -8 -6 4 -8 3 -5 -3 4 -6 -9 -34 -29 -63
-27 -39 -33 -55 -24 -65 8 -10 2 -16 -30 -29 -168 -67 -349 22 -394 196 -9 34
-10 59 -4 71 8 16 11 16 38 2 29 -15 30 -15 50 22 27 52 45 73 61 73 8 0 6 5
-6 14 -13 9 -19 26 -19 53 l-1 40 -38 -24 c-22 -14 -41 -22 -44 -20 -9 10 79
89 120 108 50 22 53 23 39 6z m-195 -234 c-3 -10 -5 -4 -5 12 0 17 2 24 5 18
2 -7 2 -21 0 -30z"/>
<path d="M3752 3036 c-21 -20 -50 -40 -63 -45 -13 -5 -17 -10 -9 -11 13 0 60
-90 60 -115 0 -6 31 -10 73 -10 57 0 73 3 74 15 3 51 18 116 27 122 7 5 7 8
-2 8 -7 0 -32 13 -55 28 -23 16 -47 32 -54 36 -7 4 -29 -8 -51 -28z"/>
<path d="M3550 2739 c0 -30 -4 -39 -17 -39 -10 0 11 -18 47 -40 36 -22 70 -40
75 -40 6 0 29 9 53 20 40 18 42 21 28 36 -27 26 -48 75 -41 92 5 14 4 15 -6 5
-15 -15 -61 -17 -107 -4 l-32 10 0 -40z"/>
<path d="M3507 5803 l3 -948 22 -18 c13 -10 16 -16 8 -12 -8 4 -4 -3 10 -15
14 -12 25 -27 25 -32 0 -5 9 -16 19 -24 11 -8 16 -14 10 -14 -5 -1 2 -10 16
-21 14 -12 25 -25 25 -29 0 -4 11 -18 25 -30 14 -12 18 -19 10 -15 -8 4 -4 -3
10 -16 14 -12 24 -25 23 -30 -2 -5 6 -13 17 -19 11 -6 18 -15 15 -20 -3 -5 4
-14 15 -20 11 -6 18 -15 15 -20 -3 -5 6 -17 20 -26 13 -9 22 -20 20 -25 -3 -4
4 -13 15 -19 11 -6 18 -15 15 -20 -3 -5 6 -17 20 -26 13 -9 22 -20 20 -25 -3
-4 4 -13 15 -19 11 -6 18 -15 15 -20 -3 -4 7 -18 22 -30 16 -12 21 -19 13 -15
-8 4 -4 -3 10 -15 14 -12 25 -26 25 -31 0 -4 9 -15 20 -23 11 -8 20 -19 20
-25 0 -5 9 -17 20 -26 11 -9 13 -14 5 -10 -8 4 1 -8 20 -25 19 -17 28 -29 20
-25 -8 4 -4 -2 10 -14 14 -11 25 -24 25 -29 0 -5 11 -20 25 -32 14 -12 18 -18
10 -15 -8 4 -1 -5 15 -20 17 -14 23 -24 15 -20 -8 4 -4 -3 10 -15 14 -12 25
-26 25 -30 0 -4 11 -18 25 -30 14 -12 18 -19 10 -15 -8 4 -4 -3 10 -16 14 -12
24 -25 23 -30 -2 -5 6 -13 17 -19 11 -6 18 -15 15 -20 -3 -5 4 -14 15 -20 11
-6 18 -15 15 -20 -3 -5 6 -17 20 -26 13 -9 23 -20 20 -24 -3 -4 7 -15 21 -25
14 -9 23 -19 20 -22 -3 -4 3 -13 14 -20 11 -8 18 -18 15 -23 -3 -5 4 -14 15
-20 11 -6 18 -15 15 -19 -2 -5 7 -16 20 -25 14 -9 23 -21 20 -26 -3 -5 4 -14
15 -20 11 -6 18 -15 15 -20 -3 -5 4 -14 15 -20 11 -6 18 -15 15 -20 -3 -5 5
-16 17 -25 13 -8 23 -19 23 -24 0 -5 11 -19 25 -31 14 -12 18 -19 10 -15 -8 4
-3 -3 13 -15 15 -12 25 -26 22 -30 -3 -5 4 -14 15 -20 11 -6 18 -15 15 -20 -3
-5 4 -14 15 -20 11 -6 18 -15 15 -20 -3 -5 5 -16 17 -25 13 -8 23 -19 23 -24
0 -5 11 -19 25 -31 14 -12 18 -19 10 -15 -8 4 -4 -3 10 -16 14 -12 24 -25 23
-29 -1 -5 3 -13 10 -18 9 -8 12 266 12 1276 l0 1287 -393 -2 c-216 -2 -398 -6
-404 -9 -7 -5 -8 -2 -3 6 5 9 4 11 -3 6 -9 -5 -12 -74 -12 -237 l0 -229 175 0
175 0 -2 -349 c-2 -231 0 -347 7 -344 6 3 5 0 -1 -6 -9 -10 -17 -10 -33 -2
-11 7 -20 15 -18 20 1 5 -9 18 -23 30 -14 13 -18 20 -10 16 8 -4 2 6 -15 20
-16 15 -23 24 -15 20 8 -3 4 3 -10 15 -14 12 -25 26 -25 31 0 5 -10 16 -23 24
-12 9 -20 20 -17 25 3 5 -4 14 -15 20 -11 6 -19 14 -17 19 1 5 -9 18 -23 30
-14 13 -18 20 -10 16 8 -4 4 3 -10 15 -14 12 -25 26 -25 31 0 6 -7 14 -15 19
-8 5 -15 13 -15 19 0 5 -11 19 -25 31 -14 12 -18 19 -10 15 8 -4 4 3 -10 15
-14 12 -25 26 -25 30 0 4 -11 18 -25 30 -14 12 -18 19 -10 15 8 -4 5 2 -8 13
l-22 20 -3 631 -2 631 227 0 228 0 -3 -197 -2 -198 232 3 233 3 2 429 3 430
-695 0 -695 0 2 -947z"/>
<path d="M5108 5015 l2 -1734 78 -4 77 -3 -77 -2 -77 -2 -3 -99 c-3 -94 -2
-99 15 -84 20 19 22 27 5 18 -7 -4 -1 3 15 15 15 12 25 26 22 30 -3 5 4 14 15
20 11 6 20 17 20 25 0 8 9 19 20 25 11 6 18 15 15 20 -3 5 4 14 15 20 11 6 19
14 17 19 -1 5 9 18 23 30 14 13 18 20 10 16 -8 -4 -1 6 15 20 17 15 23 24 15
20 -8 -3 -4 3 10 16 14 12 24 25 23 30 -2 5 8 16 22 25 14 9 22 20 20 25 -3 4
4 13 15 19 11 6 18 15 15 20 -3 5 4 14 15 20 11 6 18 15 15 20 -3 5 6 17 20
26 13 9 22 20 20 25 -3 4 4 13 15 19 11 6 18 15 15 20 -3 5 6 17 20 26 13 9
22 20 20 25 -3 4 4 13 15 19 11 6 18 15 15 20 -3 5 4 14 15 20 11 6 20 17 20
25 0 8 9 19 20 25 11 6 18 15 15 20 -3 5 4 14 15 20 11 6 18 15 15 20 -3 5 6
17 20 26 13 9 22 20 20 25 -3 4 4 13 15 19 11 6 18 15 15 20 -3 5 4 14 15 20
11 6 18 15 15 20 -3 5 6 17 20 26 13 9 22 20 20 25 -3 4 4 13 15 19 11 6 19
14 17 19 -1 5 9 18 23 30 14 13 18 20 10 16 -8 -4 -4 3 10 15 14 12 25 26 25
30 0 4 11 18 25 30 14 12 18 19 10 15 -8 -4 -1 6 15 20 17 15 23 24 15 20 -8
-3 -3 4 13 17 15 13 27 27 27 32 0 4 10 17 23 28 12 11 15 17 7 13 -8 -4 1 8
20 25 19 17 28 29 20 25 -8 -4 -3 3 13 15 15 12 25 26 22 30 -3 5 4 14 15 20
11 6 18 15 15 20 -3 5 4 14 15 20 11 6 20 17 20 25 0 8 9 19 20 25 11 6 18 15
15 20 -3 5 4 14 15 20 11 6 18 15 15 20 -3 5 6 17 20 26 13 9 22 20 20 25 -3
4 4 13 15 19 11 6 19 14 17 19 -1 5 9 18 23 30 14 13 18 20 10 16 -8 -4 -4 2
10 14 14 11 25 24 25 29 0 5 11 20 25 32 14 12 18 19 10 15 -8 -4 -5 2 8 12
l22 18 3 948 2 947 -695 0 -695 0 3 -1735z m922 635 c-1 -615 -2 -630 -21
-641 -11 -5 -17 -14 -14 -19 3 -4 -7 -18 -22 -30 -16 -12 -21 -19 -13 -15 8 4
-1 -8 -20 -25 -19 -17 -28 -29 -20 -25 8 3 2 -6 -15 -20 -16 -15 -23 -24 -15
-20 8 3 4 -3 -10 -15 -14 -12 -25 -26 -25 -30 0 -4 -11 -18 -25 -30 -14 -12
-18 -19 -10 -15 8 4 4 -3 -10 -15 -14 -12 -25 -26 -25 -30 0 -4 -11 -18 -25
-30 -14 -12 -18 -19 -10 -15 8 4 4 -3 -10 -16 -14 -12 -24 -25 -23 -30 2 -5
-6 -13 -17 -19 -11 -6 -18 -15 -15 -20 3 -5 -6 -17 -20 -26 -13 -9 -22 -20
-20 -25 3 -4 -4 -13 -15 -19 -11 -6 -18 -15 -15 -20 5 -8 -24 -30 -39 -30 -3
0 -6 407 -6 905 l0 905 230 0 231 0 -1 -630z m-440 -1196 c0 -8 -19 -13 -24
-6 -3 5 1 9 9 9 8 0 15 -2 15 -3z"/>
<path d="M6447 3069 c-2 -8 -9 -30 -15 -48 -10 -30 -9 -38 7 -55 10 -12 27
-36 37 -54 13 -22 23 -30 34 -26 8 4 27 9 41 11 25 5 26 6 17 61 -11 67 -28
98 -60 104 -13 3 -31 9 -40 13 -12 4 -19 2 -21 -6z"/>
<path d="M6144 3028 c-27 -17 -50 -32 -51 -32 -3 -2 24 -127 28 -130 2 -2 34
-5 70 -8 l65 -4 27 64 27 64 -43 39 c-23 21 -49 38 -58 39 -8 0 -38 -14 -65
-32z"/>
<path d="M2479 1761 c-46 -15 -67 -30 -73 -57 -10 -37 16 -72 59 -80 73 -13
33 -33 -53 -25 -23 2 -23 1 -6 -24 19 -29 63 -55 94 -55 15 0 20 -7 21 -27 l1
-28 8 30 8 30 1 -27 c0 -16 5 -28 10 -28 4 0 6 11 3 25 -4 22 -1 25 27 25 65
0 121 39 121 85 0 33 -45 63 -106 70 -72 9 -98 20 -70 31 10 4 27 2 37 -4 20
-13 69 -14 109 -3 l25 7 -27 26 c-37 34 -127 47 -189 29z m109 -168 c2 -8 -5
-13 -16 -13 -28 0 -52 10 -52 22 0 14 63 5 68 -9z"/>
<path d="M3210 1760 c-94 -23 -101 -122 -9 -136 72 -12 40 -28 -53 -27 -44 0
13 -62 65 -72 29 -6 37 -12 40 -34 l4 -26 2 26 c1 23 5 26 41 27 86 4 141 49
127 105 -8 29 -39 44 -109 53 -29 4 -60 10 -68 15 -27 14 17 23 50 9 35 -14
123 -5 117 13 -13 40 -129 67 -207 47z m108 -167 c2 -8 -5 -13 -16 -13 -28 0
-52 10 -52 22 0 14 63 5 68 -9z"/>
<path d="M3850 1759 c-92 -27 -93 -117 -2 -135 69 -14 33 -31 -56 -26 -18 1
-20 -2 -13 -16 33 -62 119 -81 232 -51 42 10 55 23 64 61 11 43 -28 75 -101
83 -72 9 -98 20 -71 31 10 4 28 1 40 -5 21 -11 127 -12 127 -1 -1 11 -26 37
-47 48 -31 17 -131 23 -173 11z m113 -164 c-4 -15 -56 -12 -61 3 -3 10 5 13
29 10 19 -2 33 -7 32 -13z"/>
<path d="M4376 1759 c-10 -6 -37 -9 -60 -6 l-41 6 3 -120 c3 -114 4 -120 23
-114 26 9 59 -3 59 -21 0 -8 -4 -14 -10 -14 -15 0 -12 -19 5 -36 13 -14 15 -4
15 92 l0 107 50 -69 c51 -68 51 -68 95 -65 44 2 45 2 45 -28 0 -17 3 -31 8
-31 4 0 7 67 7 148 l0 148 -46 0 -45 -1 0 -65 1 -65 -47 58 c-26 33 -44 65
-41 73 6 17 4 17 -21 3z"/>
<path d="M5040 1760 c-68 -17 -91 -84 -40 -121 14 -10 54 -22 90 -26 36 -5 64
-13 63 -18 -3 -15 -42 -18 -57 -6 -7 6 -41 10 -74 9 -50 -3 -59 -6 -52 -18 17
-32 51 -53 94 -57 39 -5 45 -9 49 -32 l4 -26 2 28 c1 21 6 27 24 27 81 0 138
50 117 104 -12 32 -34 43 -101 52 -68 8 -92 19 -66 30 10 4 28 1 40 -5 21 -11
127 -12 127 -1 -1 11 -26 37 -47 48 -30 16 -130 23 -173 12z"/>
<path d="M1771 1620 c1 -74 3 -127 6 -117 4 16 15 18 86 17 163 -3 157 -4 157
30 l0 30 -81 0 -80 0 3 88 3 87 -48 0 -47 0 1 -135z"/>
<path d="M2113 1740 c-49 -25 -68 -63 -60 -121 6 -42 40 -89 65 -89 10 0 13
-12 10 -47 -2 -32 1 -47 11 -51 10 -3 12 6 10 42 -3 37 -1 46 11 44 11 -3 15
-17 15 -53 0 -28 4 -50 10 -50 6 0 9 22 7 53 -3 33 0 52 7 52 6 0 11 -9 11
-20 0 -11 5 -20 10 -20 6 0 10 7 10 16 0 8 5 12 10 9 6 -3 10 -1 10 4 0 6 8
11 18 11 9 0 31 9 49 20 64 39 64 146 0 194 -42 31 -148 34 -204 6z m137 -60
c40 -40 16 -103 -38 -103 -41 0 -62 19 -62 56 0 60 59 88 100 47z"/>
<path d="M2858 1640 c-54 -133 -65 -170 -49 -170 6 0 11 11 11 25 0 23 4 25
40 25 29 0 40 4 40 15 0 12 13 15 55 15 l55 0 2 -57 c1 -48 2 -51 5 -17 4 41
4 42 45 42 22 1 42 2 44 5 2 2 -16 50 -41 108 -25 57 -45 109 -45 114 0 6 -26
10 -58 10 l-58 0 -46 -115z m116 -11 l14 -34 -33 -2 -33 -1 16 39 c17 45 16
45 36 -2z"/>
<path d="M3475 1568 c0 -104 3 -188 7 -188 9 0 9 -1 11 80 l2 55 123 3 122 3
0 29 0 30 -85 0 c-68 0 -85 3 -85 15 0 11 15 14 70 12 l70 -2 0 31 0 30 -73 0
c-58 -1 -73 2 -73 14 0 12 16 15 86 14 l85 -1 0 31 0 31 -130 0 -130 0 0 -187z"/>
<path d="M4121 1592 c0 -100 4 -160 10 -157 5 4 6 17 3 30 -12 47 36 86 64 52
6 -7 12 -35 15 -62 2 -28 4 29 5 125 l2 175 -49 0 -49 0 -1 -163z"/>
<path d="M4691 1746 c-50 -18 -71 -50 -71 -109 0 -45 4 -54 39 -87 36 -35 39
-41 34 -79 -5 -35 -3 -41 12 -41 15 0 17 6 12 45 -5 34 -3 45 7 45 20 0 28
-28 20 -77 -4 -29 -3 -43 5 -43 7 0 11 23 11 60 0 33 4 60 10 60 6 0 10 -9 10
-20 0 -11 3 -20 8 -20 4 0 13 9 20 20 7 11 19 20 28 20 26 0 71 31 83 57 16
35 13 105 -5 132 -34 47 -144 66 -223 37z m123 -59 c22 -16 24 -73 3 -94 -18
-19 -61 -20 -82 -3 -21 18 -20 86 3 99 24 14 55 13 76 -2z"/>
<path d="M5401 1638 l0 -118 52 -1 c156 -3 210 9 232 51 24 46 19 112 -9 143
-30 32 -46 36 -172 39 l-102 3 -1 -117z m197 34 c31 -40 -1 -92 -58 -92 l-38
0 -4 59 -3 58 45 -5 c25 -2 51 -11 58 -20z"/>
<path d="M5750 1614 c0 -78 -3 -163 -7 -189 -5 -38 -3 -47 8 -43 10 3 14 23
14 69 l0 64 126 0 125 0 0 32 -1 33 -87 0 c-70 0 -88 3 -88 14 0 12 15 14 73
13 l72 -2 0 31 0 31 -73 -1 c-58 -1 -72 2 -72 14 0 12 16 15 85 14 l85 -1 0
31 0 31 -130 0 -130 0 0 -141z"/>
<path d="M6150 1578 c0 -105 4 -178 9 -178 6 0 9 26 8 58 l-2 57 85 2 c47 1
101 2 120 2 33 1 35 3 35 34 l0 32 -80 -3 -80 -3 3 88 3 88 -50 0 -51 0 0
-177z"/>
<path d="M6510 1745 c0 -6 -20 -60 -45 -120 -43 -105 -56 -163 -35 -150 6 3
10 15 10 26 0 16 7 19 40 19 29 0 40 4 40 15 0 11 13 15 53 15 l52 0 -3 -55
c-2 -31 0 -55 6 -55 5 0 9 17 8 38 -1 36 0 37 38 39 21 1 41 4 43 6 2 3 -17
56 -42 118 l-47 114 -59 0 c-33 0 -59 -4 -59 -10z m76 -110 c19 -45 19 -45
-17 -45 -24 0 -30 3 -25 16 3 9 9 27 12 40 8 32 12 30 30 -11z"/>
<path d="M6851 1620 c0 -74 3 -129 6 -122 2 6 18 12 34 12 27 0 29 -2 29 -40
0 -22 4 -40 10 -40 5 0 11 50 12 118 l3 117 25 -65 c13 -35 23 -76 23 -90 l-2
-25 10 23 c6 17 15 22 31 20 20 -3 24 -10 29 -63 7 -73 12 -62 10 20 -2 44 4
76 23 120 28 67 29 65 26 -77 -1 -50 2 -88 8 -88 5 0 9 17 8 38 -1 36 0 37 36
40 l37 3 3 117 3 117 -70 0 -70 0 -21 -53 -20 -53 -19 41 c-10 22 -18 46 -18
53 0 8 -23 12 -74 12 l-73 0 1 -135z"/>
<path d="M7268 1593 c-1 -90 -2 -173 -2 -185 -1 -12 5 -23 13 -26 11 -4 12 6
7 50 -11 89 -12 88 130 88 l124 0 0 30 0 30 -90 0 c-71 0 -90 3 -90 14 0 11
16 14 73 13 l72 -2 0 31 0 31 -73 -1 c-58 -1 -72 2 -72 14 0 12 16 15 85 14
l85 -1 0 31 0 31 -130 0 -130 0 -2 -162z"/>
<path d="M7585 1603 c0 -84 3 -153 7 -153 4 0 8 17 10 38 2 29 7 37 23 37 15
0 21 -8 23 -29 2 -16 10 -35 17 -43 12 -12 15 1 17 87 l3 100 43 -55 c40 -51
43 -59 41 -107 -2 -33 1 -53 9 -56 8 -2 11 11 10 45 l-3 48 42 3 c40 3 42 2
45 -30 3 -18 6 35 9 118 l4 150 -48 0 -49 0 4 -64 3 -64 -42 49 c-24 26 -45
55 -48 63 -3 11 -20 15 -62 15 l-58 1 0 -153z m82 -115 c-3 -7 -5 -2 -5 12 0
14 2 19 5 13 2 -7 2 -19 0 -25z"/>
<path d="M7925 1722 c0 -32 1 -32 43 -29 l42 3 0 -105 c0 -71 3 -101 10 -91 5
8 24 15 42 15 l33 0 3 90 3 90 44 -3 45 -4 0 33 0 34 -132 0 -133 0 0 -33z"/>
<path d="M8228 1588 c-1 -93 -2 -175 -2 -185 -1 -9 5 -18 13 -21 11 -4 13 6 8
51 -11 89 -13 87 129 87 l124 0 0 30 0 29 -87 3 c-54 2 -88 7 -90 15 -3 8 18
11 69 10 l73 -2 0 31 0 31 -73 -1 c-58 -1 -72 2 -72 14 0 12 15 15 85 14 l85
-2 0 32 0 31 -130 0 -130 0 -2 -167z"/>
<path d="M4276 1488 c-3 -13 -1 -27 4 -32 7 -7 10 1 10 22 0 37 -5 41 -14 10z"/>
<path d="M3921 1484 c0 -11 3 -14 6 -6 3 7 2 16 -1 19 -3 4 -6 -2 -5 -13z"/>
<path d="M4461 1463 c-1 -24 4 -43 9 -43 12 0 12 37 0 65 -7 15 -9 10 -9 -22z"/>
<path d="M8077 1486 c-4 -10 -5 -21 -2 -24 9 -9 17 6 13 25 -3 17 -4 17 -11
-1z"/>
<path d="M3270 1480 c0 -5 5 -10 10 -10 6 0 10 5 10 10 0 6 -4 10 -10 10 -5 0
-10 -4 -10 -10z"/>
<path d="M8096 1462 c-4 -18 -5 -36 -2 -39 11 -12 17 5 14 39 l-3 33 -9 -33z"/>
<path d="M1767 1446 c-5 -21 -6 -41 -3 -44 12 -11 17 7 14 44 l-3 39 -8 -39z"/>
<path d="M8006 1465 c-3 -8 -1 -15 4 -15 6 0 10 7 10 15 0 8 -2 15 -4 15 -2 0
-6 -7 -10 -15z"/>
</g>
</svg>
