<?xml version="1.0" standalone="no"?>
<!DOCTYPE svg PUBLIC "-//W3C//DTD SVG 20010904//EN"
 "http://www.w3.org/TR/2001/REC-SVG-20010904/DTD/svg10.dtd">
<svg version="1.0" xmlns="http://www.w3.org/2000/svg"
 width="625.000000pt" height="625.000000pt" viewBox="0 0 625.000000 625.000000"
 preserveAspectRatio="xMidYMid meet">

<g transform="translate(0.000000,625.000000) scale(0.100000,-0.100000)"
fill="#000000" stroke="none">
<path d="M2860 5379 c-119 -14 -286 -49 -406 -85 -730 -219 -1330 -844 -1525
-1589 -43 -165 -59 -289 -66 -496 -13 -402 51 -711 216 -1054 150 -310 339
-556 591 -767 384 -322 845 -502 1340 -523 405 -18 758 54 1105 225 251 123
422 247 621 452 298 307 488 643 589 1044 51 200 58 284 52 600 -5 299 -12
348 -81 586 -74 254 -213 526 -375 735 -382 493 -938 806 -1553 872 -113 13
-399 12 -508 0z m445 -130 c679 -58 1291 -441 1645 -1029 140 -233 228 -471
275 -750 22 -131 31 -429 16 -571 -50 -486 -284 -961 -644 -1309 -169 -163
-314 -263 -542 -375 -168 -83 -275 -122 -450 -167 -119 -31 -123 -31 -429 -36
-323 -4 -399 1 -551 39 -234 59 -515 185 -700 315 -489 342 -796 817 -905
1399 -34 185 -29 581 10 775 66 328 245 697 465 959 277 332 671 579 1098 691
238 63 459 81 712 59z"/>
<path d="M3015 5114 c-11 -3 -57 -16 -102 -30 -75 -23 -85 -29 -122 -77 -75
-98 -114 -219 -93 -291 7 -27 9 -26 25 33 14 51 27 73 70 115 76 75 139 98
296 104 l124 5 -68 -78 c-62 -71 -91 -121 -110 -185 -6 -19 10 -8 68 48 93 89
127 105 232 106 135 1 224 -57 308 -199 22 -38 42 -64 44 -58 2 6 -10 46 -26
89 -17 43 -29 80 -27 82 16 16 98 -193 127 -321 17 -80 5 -92 -94 -92 -61 0
-72 -3 -75 -18 -4 -21 15 -52 66 -109 l36 -40 -29 -21 c-17 -11 -73 -64 -125
-117 l-95 -97 -124 -43 c-68 -24 -133 -53 -144 -64 -37 -39 -107 -138 -107
-152 0 -9 -9 -14 -22 -13 -13 1 -49 1 -80 1 -44 -2 -58 -6 -58 -17 0 -8 -4
-15 -10 -15 -5 0 -10 -7 -10 -15 0 -26 -43 -57 -72 -51 -17 3 -28 0 -31 -8 -5
-14 -141 -48 -239 -61 -48 -6 -106 -45 -259 -175 -48 -40 -95 -118 -80 -133 5
-5 6 -28 3 -53 -4 -39 -2 -44 15 -44 23 0 103 55 103 70 0 6 5 10 10 10 6 0 1
-17 -10 -37 -22 -41 -20 -57 18 -148 21 -53 24 -70 19 -145 -6 -102 -25 -156
-83 -232 -48 -63 -84 -126 -84 -145 0 -23 -62 -207 -86 -254 -20 -41 -21 -48
-8 -61 21 -21 3 -56 -45 -89 -28 -20 -40 -37 -45 -62 -7 -37 2 -117 13 -117 3
0 40 29 81 64 73 63 154 113 329 203 63 33 94 43 120 41 29 -2 35 -7 33 -23
-5 -29 -57 -99 -88 -120 -30 -19 -27 -12 23 53 18 24 33 52 33 63 0 18 -2 18
-42 3 -61 -24 -279 -147 -285 -161 -3 -7 30 -93 72 -193 75 -175 78 -180 96
-164 18 17 19 15 19 -37 0 -63 20 -99 54 -99 13 0 34 -8 47 -18 13 -10 45 -31
72 -46 26 -15 47 -33 47 -41 0 -19 37 -43 78 -51 46 -9 68 14 93 99 14 47 24
66 29 57 7 -11 13 -10 34 4 33 21 33 6 2 -31 l-24 -28 29 -109 c20 -78 36
-117 54 -136 14 -15 29 -40 33 -55 14 -52 37 -54 81 -11 51 50 70 90 83 174 6
37 17 78 24 92 14 25 14 24 12 -14 -2 -22 2 -41 7 -43 6 -2 32 10 58 27 59 37
77 76 77 164 0 36 4 68 10 71 5 3 10 1 10 -6 0 -9 3 -10 10 -3 6 6 19 57 30
113 11 57 23 107 25 111 3 5 14 6 24 3 22 -6 69 48 88 99 l11 33 1 -38 c1 -21
-6 -52 -15 -69 -15 -29 -15 -36 0 -92 10 -34 25 -72 36 -86 15 -21 20 -22 34
-11 18 15 51 121 61 193 10 75 28 72 21 -3 l-7 -64 26 28 c14 15 25 36 25 46
0 10 9 53 20 96 11 43 20 95 20 116 0 21 5 50 10 65 10 25 12 26 24 9 12 -16
14 -14 28 21 20 50 43 134 58 207 11 53 10 61 -7 79 -28 31 -64 46 -139 58
-93 14 -132 28 -144 50 -17 33 -23 152 -10 215 7 33 34 134 61 224 28 90 47
166 45 169 -3 2 -13 -10 -23 -27 -35 -64 -42 -65 -24 -6 14 45 16 63 8 74 -10
11 -6 12 19 7 26 -6 37 -1 76 33 25 23 55 60 67 83 21 42 21 43 21 13 l1 -30
17 30 c15 26 17 56 14 225 l-3 195 29 63 c36 75 41 65 41 -76 0 -51 5 -101 10
-110 8 -14 14 -8 33 36 17 41 26 51 40 46 24 -7 44 40 55 127 l8 63 57 21 c32
11 65 28 75 37 16 16 15 18 -7 26 l-24 9 29 14 c22 10 31 22 33 44 4 36 -27
70 -140 157 -43 32 -82 67 -88 78 -5 10 -10 49 -10 87 0 80 -17 113 -57 113
l-27 0 22 20 c33 31 29 81 -9 119 -17 18 -41 31 -55 31 -22 0 -23 2 -14 21 18
33 3 66 -45 99 -25 17 -48 42 -51 56 -8 30 -45 60 -84 69 -21 5 -30 14 -35 36
-8 33 -31 49 -72 49 -16 0 -44 11 -62 24 -18 14 -56 30 -83 36 -54 11 -360 22
-393 14z m560 -1885 c11 -17 -1 -21 -15 -4 -8 9 -8 15 -2 15 6 0 14 -5 17 -11z
m-216 -240 c26 -113 26 -143 0 -248 -18 -69 -20 -89 -10 -116 25 -70 9 -101
-78 -146 -41 -21 -49 -22 -153 -13 l-111 9 -84 -58 c-96 -67 -90 -68 -154 27
-52 77 -50 92 30 227 77 130 103 198 103 272 0 65 11 73 28 21 l12 -37 59 7
c74 7 105 23 147 75 18 22 41 45 51 51 16 8 18 7 14 -10 -7 -26 3 -25 39 5 16
14 42 25 58 25 27 0 29 -3 49 -91z m-831 -56 c20 -39 39 -103 27 -92 -3 4 -21
32 -39 62 -31 50 -32 58 -9 66 2 1 11 -16 21 -36z m997 -50 c-4 -30 -9 -52
-12 -49 -3 3 -2 36 2 73 5 37 10 60 13 49 2 -10 1 -43 -3 -73z m-929 -287 l-7
-125 41 -60 c22 -34 54 -71 70 -83 37 -27 38 -41 3 -68 -25 -19 -35 -21 -94
-15 -61 6 -73 4 -140 -25 -70 -31 -76 -32 -133 -22 -34 7 -69 20 -80 31 -19
20 -19 20 4 83 23 65 84 193 103 216 8 10 12 10 18 0 6 -9 13 -9 33 2 46 24
136 112 157 151 10 22 22 39 26 39 3 0 3 -56 -1 -124z m804 66 c0 -26 -25 -5
-28 24 -2 28 -2 28 13 10 8 -11 15 -26 15 -34z m406 -254 c-9 -12 -16 -36 -16
-53 0 -23 -3 -27 -10 -15 -16 25 -11 59 11 81 26 26 36 18 15 -13z m-816 -114
c43 -36 30 -42 -24 -10 -24 14 -49 26 -55 26 -24 0 -80 -63 -95 -107 -34 -100
-11 -275 54 -402 40 -80 119 -164 150 -159 27 4 56 41 66 82 l7 29 -44 -7 -44
-6 40 23 c38 21 40 25 43 75 3 47 -12 159 -22 169 -2 3 -18 -3 -35 -11 -17 -9
-43 -21 -57 -27 -49 -18 -6 20 59 53 57 28 61 29 71 11 64 -107 124 -233 112
-233 -7 0 -33 29 -56 65 -23 36 -43 65 -44 65 -1 0 1 -23 4 -52 4 -31 13 -56
23 -62 14 -9 14 -12 -2 -35 -10 -15 -25 -47 -35 -73 -16 -44 -64 -98 -87 -98
-49 0 -137 95 -189 201 -97 200 -91 401 12 483 45 36 105 36 148 0z m439 -74
c6 0 25 7 41 15 41 21 38 11 -5 -15 -42 -26 -44 -44 -9 -112 26 -51 26 -51 46
-31 11 11 22 39 25 61 3 23 12 47 20 53 11 10 12 8 7 -6 -10 -25 16 -37 43
-20 12 8 32 15 43 15 20 0 20 -1 -5 -37 -14 -21 -25 -43 -25 -50 0 -19 -18
-25 -41 -13 -14 8 -19 18 -16 31 3 10 1 19 -4 19 -5 0 -9 -6 -9 -14 0 -29 -45
-69 -81 -72 -67 -5 -100 -17 -116 -40 -18 -28 -45 -31 -67 -8 -22 22 -21 29
20 74 43 47 58 50 76 13 30 -63 61 -15 39 59 -9 29 -17 38 -33 38 -17 0 -19 3
-10 12 7 7 12 23 12 37 0 23 1 23 18 8 10 -10 24 -17 31 -17z m-1039 -248 c12
-32 33 -100 47 -152 31 -116 33 -119 50 -86 17 33 36 33 57 1 19 -29 42 -24
51 13 9 35 33 62 57 62 24 0 23 -22 -2 -38 -30 -19 -25 -42 9 -42 22 0 37 11
65 45 43 52 74 63 50 18 -7 -16 -14 -41 -14 -58 -1 -28 -2 -29 -14 -12 -13 17
-16 17 -53 -3 -24 -13 -47 -18 -65 -15 -14 4 -29 1 -33 -4 -11 -19 -44 -12
-70 16 l-25 28 0 -57 c0 -31 -4 -60 -10 -63 -17 -11 -143 275 -156 356 -15 91
21 85 56 -9z m838 52 c26 -18 28 -41 5 -66 -46 -51 -93 14 -50 70 12 16 18 15
45 -4z m67 -184 c-10 -11 -23 -20 -28 -20 -6 0 -2 9 8 20 10 11 23 20 28 20 6
0 2 -9 -8 -20z m-75 -82 c0 -2 -7 -23 -14 -48 l-15 -45 0 41 c-1 22 2 44 6 47
6 7 23 10 23 5z m-201 -425 c0 -34 -1 -36 -11 -16 -6 12 -8 29 -5 37 11 27 17
18 16 -21z"/>
<path d="M3307 2063 c-11 -10 -8 -51 3 -58 9 -6 30 33 30 56 0 10 -23 12 -33
2z"/>
<path d="M2350 2013 c0 -18 42 -124 47 -119 6 6 -27 108 -38 121 -6 5 -9 5 -9
-2z"/>
<path d="M3190 1970 c0 -5 7 -10 16 -10 8 0 12 5 9 10 -3 6 -10 10 -16 10 -5
0 -9 -4 -9 -10z"/>
<path d="M2106 1944 c-90 -74 -102 -103 -87 -208 6 -44 18 -90 26 -103 18 -27
50 -30 63 -7 6 11 12 -4 20 -53 7 -43 17 -72 28 -78 9 -5 36 -23 61 -39 25
-16 48 -25 52 -20 5 5 16 32 25 60 9 28 30 64 46 79 17 16 30 33 30 38 0 5
-37 94 -82 198 -58 136 -86 189 -98 189 -9 0 -47 -25 -84 -56z m189 -291 c-21
-49 -25 -52 -25 -17 0 17 5 35 12 42 23 23 28 12 13 -25z"/>
<path d="M3386 1551 c-11 -12 -15 -27 -12 -39 8 -25 45 -64 55 -57 14 8 21 64
11 90 -11 30 -31 32 -54 6z"/>
<path d="M2470 1443 l0 -28 -20 25 c-10 14 -21 23 -23 20 -15 -16 -67 -147
-67 -169 0 -38 66 -140 95 -147 28 -7 84 24 114 62 16 20 18 31 10 56 -5 17
-6 48 -3 69 5 32 2 41 -32 78 -20 23 -46 46 -56 52 -15 8 -18 6 -18 -18z m31
-213 c-9 -23 -10 -21 -10 16 -1 22 2 44 7 48 11 12 14 -37 3 -64z"/>
</g>
</svg>
