<?xml version="1.0" standalone="no"?>
<!DOCTYPE svg PUBLIC "-//W3C//DTD SVG 20010904//EN"
 "http://www.w3.org/TR/2001/REC-SVG-20010904/DTD/svg10.dtd">
<svg version="1.0" xmlns="http://www.w3.org/2000/svg"
 width="500.000000pt" height="500.000000pt" viewBox="0 0 500.000000 500.000000"
 preserveAspectRatio="xMidYMid meet">

<g transform="translate(0.000000,500.000000) scale(0.100000,-0.100000)"
fill="#000000" stroke="none">
<path d="M2352 4309 c-128 -9 -307 -44 -428 -84 -606 -202 -1077 -732 -1204
-1356 -28 -138 -39 -322 -30 -489 15 -250 72 -459 190 -695 268 -537 797 -912
1390 -985 108 -13 351 -13 460 0 375 45 757 230 1025 495 279 276 451 591 527
965 20 101 23 143 23 345 -1 211 -3 240 -28 356 -80 376 -257 696 -529 954
-378 360 -861 531 -1396 494z m298 -109 c834 -74 1498 -753 1548 -1584 19
-308 -33 -583 -163 -851 -167 -346 -435 -620 -770 -785 -158 -78 -273 -119
-425 -152 -94 -20 -131 -23 -345 -22 -210 0 -252 3 -340 22 -346 77 -619 227
-870 476 -253 253 -418 581 -476 951 -20 121 -17 409 5 530 30 164 81 319 156
470 208 417 558 721 1001 868 222 73 438 98 679 77z"/>
<path d="M2361 4078 c-20 -10 -45 -18 -56 -18 -26 -1 -42 -14 -88 -75 -47 -61
-71 -140 -61 -198 l7 -42 12 45 c16 61 40 95 89 130 59 40 136 60 232 60 l82
0 -58 -59 c-39 -40 -65 -77 -78 -113 -11 -29 -19 -54 -17 -56 1 -2 28 24 60
57 65 68 102 84 190 85 108 0 188 -58 250 -180 20 -40 25 -44 25 -24 0 14 -11
49 -25 79 -31 66 -26 78 9 19 22 -38 62 -159 80 -245 10 -42 -17 -57 -90 -51
-51 4 -54 3 -54 -19 0 -14 17 -40 44 -68 l44 -44 -51 -38 c-28 -21 -70 -63
-94 -94 -42 -55 -45 -57 -145 -89 -57 -18 -109 -37 -116 -43 -7 -6 -32 -36
-56 -67 -35 -45 -42 -62 -39 -87 3 -17 1 -38 -4 -47 -7 -12 -9 -7 -9 18 0 45
-8 52 -39 38 -27 -13 -34 -49 -13 -70 9 -9 9 -12 0 -12 -7 0 -12 -13 -12 -30
0 -17 -5 -30 -12 -30 -9 0 -12 16 -10 55 3 34 0 55 -7 55 -5 0 -16 12 -23 27
-7 15 -22 29 -33 32 -19 3 -19 2 -3 -16 29 -32 27 -64 -5 -82 -26 -15 -29 -15
-43 3 -8 11 -14 36 -14 55 0 27 -3 32 -10 21 -15 -23 -12 -61 5 -80 15 -16 9
-19 -69 -39 -47 -11 -101 -21 -121 -21 -27 0 -45 -9 -78 -38 -23 -21 -63 -53
-88 -70 -25 -17 -57 -46 -71 -64 -29 -38 -44 -78 -29 -78 6 0 6 -11 0 -32 -5
-18 -5 -36 0 -41 12 -12 65 17 90 49 23 30 29 19 6 -12 -21 -28 -18 -54 11
-119 24 -51 26 -65 20 -128 -8 -85 -30 -137 -83 -197 -22 -25 -44 -61 -48 -80
-12 -63 -57 -194 -77 -228 -16 -27 -17 -33 -5 -38 24 -9 8 -49 -29 -69 -39
-21 -47 -41 -42 -108 l3 -46 65 50 c36 28 68 56 72 62 3 6 13 11 20 13 8 1 45
21 83 44 128 78 204 106 220 80 12 -19 -46 -99 -90 -122 -11 -6 -1 10 23 35
23 26 42 56 42 67 0 20 0 20 -49 0 -43 -17 -221 -118 -221 -125 0 -6 122 -290
127 -295 3 -3 11 4 20 15 14 19 14 17 8 -23 -8 -52 13 -92 49 -92 13 0 29 -6
35 -13 6 -8 29 -22 50 -32 25 -11 41 -25 43 -38 2 -14 16 -25 46 -35 57 -19
69 -7 93 85 10 37 18 58 18 46 1 -27 8 -29 33 -6 26 23 23 -2 -4 -29 -19 -19
-20 -24 -8 -52 7 -17 17 -57 23 -89 7 -43 16 -63 33 -74 14 -8 26 -29 30 -49
8 -42 30 -45 66 -6 43 46 56 74 63 139 4 34 13 70 20 80 13 16 13 14 8 -20 -3
-20 -2 -37 3 -36 5 0 29 13 54 28 50 31 57 47 60 146 1 47 4 62 9 45 7 -24 8
-24 18 -5 6 11 16 57 23 103 11 75 22 100 32 71 7 -21 58 33 70 74 l12 42 4
-32 c2 -18 -4 -43 -13 -56 -13 -20 -14 -33 -4 -75 6 -29 19 -62 30 -74 19 -23
19 -23 34 -3 18 23 37 86 40 136 1 19 7 44 13 55 8 15 10 6 6 -41 l-5 -60 20
24 c12 13 21 33 21 46 0 12 7 42 15 65 8 23 15 57 15 75 0 46 11 95 21 95 5 0
9 -10 10 -22 0 -18 4 -14 18 17 24 55 62 211 55 228 -8 22 -79 57 -115 57 -19
0 -54 6 -79 14 -41 12 -46 17 -52 52 -13 72 -8 137 16 213 13 42 32 108 43
146 11 39 24 79 28 90 8 17 7 18 -7 7 -9 -7 -21 -26 -28 -43 -19 -44 -23 -29
-5 21 20 56 20 57 -15 75 -21 11 -30 23 -29 38 1 15 3 17 6 5 2 -9 17 -21 34
-27 16 -5 29 -17 29 -26 0 -13 6 -12 35 8 41 28 74 68 86 105 8 26 9 25 5 -7
-3 -31 -2 -32 10 -16 22 30 27 81 19 184 -11 143 -9 164 14 201 11 19 21 44
22 55 0 17 2 16 10 -5 6 -14 8 -38 5 -53 -7 -33 4 -147 13 -147 4 0 15 23 26
52 14 40 20 48 25 33 6 -18 8 -17 24 6 9 14 20 53 24 85 l7 59 58 19 c58 19
75 42 35 49 -24 4 -19 7 27 22 8 2 15 16 15 30 0 28 -26 56 -105 115 -96 71
-90 62 -88 131 2 75 -18 111 -58 103 -24 -4 -24 -4 -2 7 40 21 37 76 -7 112
-12 10 -31 17 -41 14 -16 -4 -17 -2 -8 14 18 34 6 60 -36 83 -30 15 -40 27
-40 45 0 13 -7 27 -15 31 -8 4 -25 12 -38 19 -13 6 -27 9 -32 6 -6 -4 -10 7
-10 23 0 32 -14 42 -58 42 -14 0 -36 10 -49 21 -30 29 -102 41 -262 43 -107 1
-141 -2 -170 -16z m389 -1113 c0 -60 3 -76 18 -84 14 -9 13 -10 -10 -9 l-28 2
0 83 c0 49 4 83 10 83 6 0 10 -32 10 -75z m132 -10 c2 -63 0 -85 -9 -85 -10 0
-13 24 -13 85 0 47 4 85 9 85 5 0 11 -38 13 -85z m-372 -18 c0 -24 5 -48 12
-55 9 -9 9 -12 0 -12 -7 0 -12 -13 -12 -30 0 -17 -5 -30 -12 -30 -10 0 -12 22
-11 82 1 46 2 84 3 86 0 1 5 2 10 2 6 0 10 -19 10 -43z m68 31 c15 -15 15 -58
1 -78 -9 -12 -10 -12 -5 3 9 29 -5 68 -28 77 -21 9 -21 9 0 9 11 1 25 -4 32
-11z m108 4 c13 -8 23 -102 12 -102 -5 0 -8 7 -8 17 0 15 -1 15 -18 0 -37 -34
-84 -4 -49 30 15 15 16 14 11 -4 -3 -12 -1 -24 6 -28 18 -11 40 15 40 51 0 26
-5 33 -22 37 -20 4 -20 4 -3 5 11 1 25 -2 31 -6z m138 -14 c20 -28 20 -39 1
-64 -13 -16 -14 -16 -9 -1 10 28 -5 67 -29 77 l-22 9 22 0 c12 1 29 -9 37 -21z
m164 10 c7 -7 12 -16 12 -20 0 -15 -15 -8 -28 12 -13 22 -3 27 16 8z m-66 -26
c-5 -34 22 -66 50 -59 10 3 16 1 12 -4 -11 -19 -54 -9 -70 16 -14 21 -15 31
-6 50 15 33 19 31 14 -3z m135 -84 c-3 -8 -6 -5 -6 6 -1 11 2 17 5 13 3 -3 4
-12 1 -19z m-30 -70 c-3 -7 -5 -2 -5 12 0 14 2 19 5 13 2 -7 2 -19 0 -25z
m-56 -61 c-10 -9 -11 -8 -5 6 3 10 9 15 12 12 3 -3 0 -11 -7 -18z m-361 -27
c24 -24 26 -78 5 -106 -14 -18 -14 -17 -5 9 12 33 -7 89 -37 106 -17 10 -17
10 0 11 9 0 26 -9 37 -20z m165 9 c11 -17 2 -18 -19 -3 -17 12 -17 14 -4 14 9
0 20 -5 23 -11z m55 4 c0 -5 -5 -15 -10 -23 -8 -12 -10 -11 -10 8 0 12 5 22
10 22 6 0 10 -3 10 -7z m-318 -15 c-26 -26 -1 -112 35 -121 14 -4 13 -5 -4 -6
-25 -1 -63 42 -63 73 0 22 25 66 38 66 3 0 1 -5 -6 -12z m169 -20 c-12 -32 -2
-66 27 -88 18 -15 21 -20 8 -20 -26 0 -56 37 -56 69 0 35 9 61 21 61 4 0 5
-10 0 -22z m234 -9 c11 -16 1 -19 -13 -3 -7 8 -8 14 -3 14 5 0 13 -5 16 -11z
m-125 -53 c0 -14 -3 -27 -7 -29 -5 -3 -8 8 -8 24 0 16 3 29 8 29 4 0 7 -11 7
-24z m76 -43 c-7 -7 -26 7 -26 19 0 6 6 6 15 -2 9 -7 13 -15 11 -17z m-178
-182 c23 -102 23 -114 -5 -214 -13 -46 -14 -63 -5 -78 7 -10 12 -31 12 -46 -1
-22 -10 -34 -46 -56 -56 -33 -59 -34 -157 -24 l-79 8 -70 -48 -70 -48 -28 35
c-16 19 -37 49 -46 66 -21 38 -14 59 51 159 56 84 87 176 78 229 -7 47 12 43
22 -5 7 -31 7 -31 58 -24 65 9 80 17 113 61 15 19 36 40 46 45 18 9 18 8 8
-10 -16 -30 -1 -26 45 14 22 19 42 34 45 35 4 0 16 -45 28 -99z m136 -58 c-4
-32 -10 -67 -15 -78 -8 -19 -5 23 7 103 9 56 16 35 8 -25z m-786 -22 c15 -43
7 -54 -10 -15 -6 16 -21 40 -32 53 -12 13 -15 21 -8 17 7 -4 12 -2 12 6 0 18
25 -21 38 -61z m39 -233 l-6 -101 40 -61 c23 -34 47 -60 54 -58 25 5 24 -36
-1 -53 -27 -18 -52 -19 -89 -5 -22 8 -38 5 -92 -21 -64 -30 -67 -31 -124 -19
-71 15 -77 28 -49 99 29 75 78 168 91 177 9 5 10 2 6 -10 -10 -25 7 -17 76 34
37 28 61 55 71 81 9 21 19 39 22 39 4 0 4 -46 1 -102z m642 50 c1 -5 -3 -8 -8
-8 -12 0 -22 30 -14 43 6 10 20 -13 22 -35z m327 -200 c-9 -12 -16 -34 -17
-48 l-1 -25 -10 28 c-9 24 -7 32 13 53 27 29 37 24 15 -8z m-649 -94 c35 -35
23 -40 -22 -9 -46 30 -45 30 -80 3 -79 -62 -76 -244 7 -401 31 -58 87 -117
111 -117 24 0 47 25 53 59 l7 34 -39 -7 -39 -6 30 13 c54 25 58 36 44 126 -6
45 -13 81 -16 81 -2 0 -22 -9 -44 -21 -66 -33 -67 -16 -1 19 33 18 62 32 66
32 3 0 22 -33 42 -72 20 -40 45 -85 55 -100 22 -30 10 -47 -13 -20 -8 9 -27
37 -42 62 l-28 45 6 -34 c3 -18 6 -42 6 -52 0 -11 7 -19 17 -19 15 0 15 -2 -1
-19 -9 -10 -22 -36 -27 -57 -13 -46 -45 -84 -72 -84 -78 0 -181 161 -206 322
-11 69 -4 125 22 175 39 73 115 96 164 47z m371 -50 c17 9 35 16 39 16 4 -1
-9 -10 -29 -21 -21 -11 -38 -23 -38 -28 0 -20 40 -101 49 -101 15 0 35 41 35
74 1 17 7 31 16 33 12 4 12 2 2 -5 -10 -7 -10 -11 3 -22 12 -10 18 -10 31 1 9
7 25 14 36 16 20 3 20 2 4 -19 -9 -13 -21 -35 -27 -50 -9 -24 -14 -26 -31 -17
-13 7 -18 17 -15 30 3 10 1 17 -4 13 -5 -3 -9 -12 -9 -20 0 -8 -9 -23 -20 -34
-16 -16 -25 -18 -39 -10 -14 7 -22 6 -32 -6 -7 -9 -23 -14 -35 -11 -16 3 -24
-2 -27 -14 -7 -25 -34 -34 -52 -19 -22 19 -18 38 14 71 36 36 49 36 57 4 7
-28 31 -33 41 -9 3 8 0 33 -7 55 -11 33 -17 38 -34 34 -19 -5 -19 -5 -3 5 12
8 15 19 11 38 l-6 27 20 -24 c18 -22 20 -23 50 -7z m-839 -252 c11 -37 26 -91
33 -120 12 -53 12 -53 25 -28 16 31 39 34 48 6 9 -29 34 -25 41 8 9 36 23 52
45 52 25 0 24 -15 -2 -34 -12 -8 -18 -19 -14 -25 12 -20 43 -12 64 17 36 47
41 52 59 52 16 -1 16 -1 0 -13 -9 -7 -18 -31 -21 -53 -3 -33 -5 -35 -11 -17
l-8 22 -28 -21 c-20 -14 -36 -19 -54 -14 -13 3 -28 2 -31 -4 -10 -17 -36 -11
-56 13 l-18 22 -1 -52 c0 -29 -4 -53 -9 -53 -9 0 -41 68 -90 190 -37 94 -45
125 -36 147 6 16 8 16 26 -5 10 -13 28 -54 38 -90z m662 79 c15 -16 15 -20 -1
-41 -21 -28 -54 -23 -58 8 -4 25 13 52 32 52 6 0 19 -8 27 -19z m44 -141 c-10
-11 -20 -18 -23 -15 -7 6 18 35 31 35 5 0 2 -9 -8 -20z m-61 -72 c-4 -7 -11
-28 -15 -48 l-7 -35 -1 41 c-1 40 4 54 21 54 5 0 6 -5 2 -12z m-157 -345 c-4
-17 -4 -17 -12 0 -4 9 -4 25 0 35 8 16 8 16 12 0 3 -10 3 -26 0 -35z"/>
<path d="M2647 1653 c-10 -10 -8 -53 2 -53 10 0 21 24 21 46 0 15 -12 19 -23
7z"/>
<path d="M1880 1611 c0 -14 42 -122 46 -118 5 4 -36 127 -42 127 -2 0 -4 -4
-4 -9z"/>
<path d="M2550 1580 c0 -13 18 -22 24 -11 3 5 -1 11 -9 15 -8 3 -15 1 -15 -4z"/>
<path d="M1710 2961 c0 -61 3 -72 22 -85 12 -9 27 -16 32 -16 6 0 0 7 -12 16
-19 13 -22 24 -22 85 0 39 -4 69 -10 69 -6 0 -10 -30 -10 -69z"/>
<path d="M2134 2998 c-8 -13 -7 -62 2 -110 4 -21 11 -28 27 -28 20 1 21 1 4
11 -15 9 -18 22 -16 70 2 61 -3 80 -17 57z"/>
<path d="M1875 2920 c0 -33 4 -60 10 -60 12 0 11 113 -2 117 -4 2 -8 -24 -8
-57z"/>
<path d="M1961 2959 c6 -12 9 -39 7 -60 -2 -27 0 -39 9 -39 8 0 13 14 13 41 0
43 -14 79 -31 79 -6 0 -5 -8 2 -21z"/>
<path d="M2085 2970 c3 -5 8 -10 11 -10 2 0 4 5 4 10 0 6 -5 10 -11 10 -5 0
-7 -4 -4 -10z"/>
<path d="M2016 2962 c-8 -14 28 -52 49 -52 9 0 20 -10 25 -22 9 -22 9 -22 9 3
1 20 -6 30 -29 39 -17 7 -34 19 -39 28 -5 10 -10 11 -15 4z"/>
<path d="M2010 2880 c0 -6 7 -13 15 -17 24 -9 27 1 5 15 -13 8 -20 8 -20 2z"/>
<path d="M1704 1572 c-94 -75 -97 -82 -92 -164 5 -73 20 -113 47 -123 16 -6
33 14 24 29 -3 5 -1 6 5 2 7 -4 12 -22 12 -41 0 -41 16 -85 30 -85 6 0 27 -12
46 -26 19 -15 36 -25 38 -23 2 2 11 27 20 56 10 30 28 60 42 70 l25 19 -66
154 c-36 85 -70 159 -74 163 -4 4 -30 -10 -57 -31z m137 -239 c-5 -10 -13 -27
-17 -38 -7 -19 -8 -19 -12 3 -2 13 4 32 14 43 20 23 29 18 15 -8z"/>
<path d="M2708 1243 c-9 -10 -13 -25 -10 -33 6 -19 33 -50 43 -50 15 0 22 69
9 85 -16 19 -24 19 -42 -2z"/>
<path d="M1977 1153 l5 -28 -20 24 -19 24 -32 -68 c-36 -75 -36 -77 14 -154
32 -51 56 -52 110 -6 38 33 39 35 28 66 -9 22 -9 38 -2 50 12 24 1 47 -46 88
-20 17 -37 31 -39 31 -2 0 -1 -12 1 -27z m29 -155 c-10 -40 -11 -41 -14 -15
-4 33 3 57 17 57 5 0 4 -18 -3 -42z"/>
</g>
</svg>
