<?xml version="1.0" standalone="no"?>
<!DOCTYPE svg PUBLIC "-//W3C//DTD SVG 20010904//EN"
 "http://www.w3.org/TR/2001/REC-SVG-20010904/DTD/svg10.dtd">
<svg version="1.0" xmlns="http://www.w3.org/2000/svg"
 width="1100.000000pt" height="1100.000000pt" viewBox="0 0 1100.000000 1100.000000"
 preserveAspectRatio="xMidYMid meet">

<g transform="translate(0.000000,1100.000000) scale(0.100000,-0.100000)"
fill="#000000" stroke="none">
<path d="M5285 10994 c-803 -41 -1480 -210 -2163 -540 -562 -271 -1023 -597
-1470 -1038 -819 -808 -1360 -1839 -1556 -2966 -89 -516 -104 -1098 -40 -1615
133 -1077 574 -2072 1289 -2907 198 -231 520 -538 770 -734 778 -612 1723
-1006 2700 -1128 437 -55 941 -55 1385 0 1584 195 3020 1099 3905 2458 701
1076 1000 2374 844 3656 -149 1218 -694 2336 -1564 3205 -445 445 -923 785
-1490 1061 -620 301 -1255 475 -1953 534 -126 10 -548 20 -657 14z m640 -329
c208 -18 348 -36 525 -69 1222 -227 2314 -883 3096 -1861 588 -734 972 -1644
1088 -2580 38 -308 50 -758 26 -1045 -67 -822 -307 -1573 -723 -2265 -350
-582 -828 -1104 -1382 -1510 -1140 -835 -2576 -1165 -3980 -915 -660 118
-1316 378 -1885 748 -1000 650 -1738 1613 -2108 2753 -287 883 -329 1843 -121
2754 294 1281 1075 2409 2179 3142 728 484 1558 773 2435 848 211 18 644 18
850 0z"/>
<path d="M5205 8900 c-3 -5 -26 -10 -50 -10 -24 0 -47 -4 -50 -10 -3 -5 -17
-10 -30 -10 -13 0 -26 -4 -29 -9 -3 -5 -23 -11 -43 -14 -45 -5 -163 -54 -214
-88 -33 -21 -57 -37 -122 -76 -40 -23 -186 -177 -192 -201 -3 -14 -15 -37 -26
-50 -10 -14 -19 -31 -19 -39 0 -8 -14 -40 -30 -70 l-30 -55 2 -206 3 -207 100
0 100 0 3 115 c1 63 7 119 12 124 6 6 10 20 10 32 0 13 5 26 10 29 6 3 10 20
10 36 0 56 43 121 155 237 58 61 97 91 142 113 81 38 109 38 52 -1 -50 -33
-179 -155 -179 -170 0 -5 -13 -24 -28 -42 -16 -18 -36 -55 -45 -83 -8 -27 -25
-80 -36 -116 -28 -89 -30 -258 -3 -280 20 -18 109 -42 123 -34 5 4 9 48 9 100
0 52 4 97 10 100 6 3 10 14 10 24 0 38 67 148 125 204 49 49 115 97 115 84 0
-1 -22 -26 -49 -54 -28 -31 -65 -87 -90 -139 l-41 -86 0 -123 c0 -135 2 -139
62 -150 35 -7 38 -5 52 26 7 19 24 59 37 89 26 60 142 190 192 215 32 16 87
20 87 7 0 -5 -17 -18 -37 -30 -40 -22 -149 -131 -171 -169 -6 -13 -12 -29 -12
-38 0 -8 -9 -30 -20 -50 -11 -20 -20 -44 -20 -55 0 -24 52 -50 101 -50 21 0
41 -4 44 -10 9 -14 359 -13 404 2 44 14 95 36 181 77 56 27 80 40 136 70 6 3
62 41 125 83 86 58 149 112 259 223 80 81 162 155 182 166 44 23 86 24 112 4
18 -14 66 -21 66 -10 0 17 -227 235 -282 271 -37 24 -70 49 -73 54 -4 6 -39
27 -78 46 -40 20 -79 42 -87 49 -8 7 -24 15 -35 18 -11 3 -54 20 -95 37 -122
52 -173 70 -202 70 -15 0 -30 5 -33 10 -3 6 -35 10 -70 10 -35 0 -67 5 -70 10
-4 6 -88 10 -220 10 -132 0 -216 -4 -220 -10z"/>
<path d="M6323 8017 c-65 -64 -139 -130 -165 -148 -27 -17 -48 -38 -48 -46 0
-9 21 -40 48 -69 26 -29 60 -69 76 -89 37 -46 148 -264 171 -335 9 -30 21 -63
26 -72 5 -10 9 -31 9 -47 0 -17 5 -33 10 -36 6 -3 10 -16 10 -29 0 -12 4 -26
9 -31 5 -6 12 -30 15 -55 10 -85 17 -125 26 -145 9 -19 12 -39 29 -175 4 -36
11 -73 14 -82 4 -10 10 -26 13 -35 5 -15 9 -13 20 12 7 17 13 43 14 59 0 16
11 60 25 98 14 38 25 86 25 106 0 20 8 57 17 82 21 58 33 153 39 309 3 80 1
128 -5 134 -6 6 -11 31 -11 56 0 24 -4 58 -9 75 -5 17 -15 51 -22 76 -7 25
-23 66 -36 92 -13 26 -23 56 -23 67 0 11 -18 57 -40 102 -22 45 -40 88 -40 95
0 13 -56 124 -70 138 -6 6 -57 -37 -127 -107z"/>
<path d="M4121 8015 c-35 -19 -81 -51 -103 -72 -43 -41 -128 -164 -128 -185 0
-7 -14 -51 -30 -98 l-30 -85 0 -322 c0 -204 4 -324 10 -328 6 -3 10 -30 10
-60 0 -30 4 -56 9 -59 9 -6 16 -44 27 -138 7 -58 19 -62 28 -10 4 20 11 62 17
92 5 30 14 89 19 130 4 41 13 95 20 120 6 25 15 70 19 100 7 57 9 64 59 215
42 129 51 152 86 225 35 75 52 99 123 180 46 52 51 62 43 87 -5 15 -18 58 -29
94 -12 37 -21 75 -21 86 0 27 -28 63 -48 62 -9 -1 -46 -16 -81 -34z"/>
<path d="M7950 6950 c-129 -46 -174 -67 -265 -124 -38 -24 -89 -60 -112 -80
-23 -20 -45 -36 -50 -36 -5 0 -27 -18 -48 -40 l-39 -40 -91 0 c-78 0 -97 -4
-140 -26 -65 -34 -83 -52 -123 -117 -80 -132 -97 -234 -84 -512 7 -151 13
-208 26 -231 20 -38 45 -61 71 -66 21 -3 21 -4 48 -183 7 -49 17 -99 22 -110
5 -10 9 -80 9 -153 1 -121 -1 -136 -18 -146 -61 -36 -82 -56 -104 -95 -24 -43
-24 -49 -20 -195 5 -165 17 -216 83 -345 40 -81 116 -155 174 -171 22 -6 45
-18 50 -28 5 -9 27 -71 50 -137 68 -202 95 -262 170 -380 41 -65 225 -265 244
-265 8 0 76 -48 87 -61 3 -3 21 -14 40 -24 19 -10 46 -26 60 -37 33 -24 229
-106 300 -125 145 -39 377 -63 440 -45 19 6 62 15 95 20 71 12 142 29 170 41
11 5 40 16 65 26 65 24 178 81 226 113 23 15 61 40 85 56 67 44 220 202 271
281 41 63 78 134 98 190 4 11 15 37 24 58 9 21 16 44 16 53 0 18 47 169 64
204 6 14 21 26 33 28 12 2 27 9 33 17 22 26 -40 85 -88 85 -38 0 -60 -30 -86
-114 -22 -68 -34 -90 -61 -113 -174 -141 -213 -174 -258 -214 -66 -59 -86 -69
-137 -69 -53 0 -112 30 -176 90 -74 69 -156 106 -296 132 -115 21 -421 10
-487 -18 -9 -3 -29 -10 -46 -14 -97 -26 -214 -89 -260 -140 -50 -55 -120 -65
-179 -25 -20 14 -39 25 -42 25 -2 0 -35 25 -72 55 -64 53 -94 76 -191 150 -42
31 -47 41 -84 152 -21 65 -41 120 -43 122 -2 2 -29 8 -60 12 -68 9 -93 30
-135 113 -75 150 -108 332 -76 427 14 42 17 44 58 47 24 2 49 8 55 13 12 10
61 -11 102 -42 32 -25 49 -15 55 34 3 23 13 83 22 132 9 50 19 116 22 147 2
32 11 62 19 69 15 12 25 8 154 -61 66 -36 165 -78 245 -105 44 -14 88 -30 97
-35 9 -5 36 -12 60 -16 24 -3 54 -10 68 -15 27 -10 108 -24 235 -41 103 -14
397 -14 500 0 171 23 231 33 250 42 11 5 38 11 60 15 108 17 391 131 516 207
58 35 66 25 74 -101 4 -61 11 -113 15 -116 4 -3 11 -43 15 -90 4 -47 11 -87
16 -90 8 -6 45 12 118 56 24 14 37 17 44 10 20 -20 82 -13 105 12 29 31 28 61
-4 81 l-25 17 4 132 c3 73 10 159 16 192 20 116 23 152 27 450 5 303 1 357
-36 440 -4 11 -19 45 -33 75 -51 118 -134 215 -284 333 -33 26 -64 47 -68 47
-4 0 -24 13 -44 28 -59 46 -227 121 -351 157 -30 9 -65 21 -78 26 -13 5 -261
8 -580 8 l-557 -2 -75 -27z m566 -3136 c44 -19 177 -15 197 5 15 15 70 14 85
-1 21 -21 15 -76 -11 -93 -36 -23 -138 -54 -180 -55 -41 0 -148 32 -184 56
-27 17 -31 65 -7 88 20 20 51 20 100 0z"/>
<path d="M4330 6960 c-8 -5 -56 -10 -107 -10 -50 0 -95 -4 -98 -10 -3 -5 -20
-10 -36 -10 -64 0 -69 -9 -69 -132 0 -89 3 -115 16 -129 17 -19 32 -74 41
-149 3 -25 9 -49 14 -54 5 -6 9 -25 9 -42 0 -18 5 -36 10 -39 6 -3 10 -21 10
-40 0 -19 5 -37 10 -40 6 -3 10 -16 10 -28 0 -31 101 -128 167 -161 52 -26 56
-26 270 -26 l218 0 60 29 c33 16 82 51 108 78 46 47 97 131 97 159 0 8 9 29
20 49 11 20 20 44 20 55 0 10 5 22 10 25 6 3 10 14 10 23 0 35 32 98 61 118
24 17 37 20 74 14 49 -7 95 -42 95 -71 0 -10 9 -34 20 -54 11 -20 20 -44 20
-55 0 -11 11 -44 25 -74 14 -30 25 -61 25 -69 0 -8 9 -22 20 -32 11 -10 20
-28 20 -39 0 -24 70 -95 110 -113 92 -41 108 -43 315 -43 207 0 223 2 315 43
37 16 110 88 110 109 0 9 8 32 18 50 19 36 48 125 56 173 3 17 8 46 11 65 10
59 28 114 47 142 24 35 26 202 3 235 -16 23 -52 30 -205 39 -47 3 -89 10 -94
15 -14 13 -433 12 -441 -1 -3 -5 -33 -10 -66 -10 -32 0 -67 -4 -77 -9 -9 -5
-37 -15 -62 -22 -25 -7 -63 -21 -84 -32 -59 -29 -271 -34 -344 -9 -28 10 -55
22 -59 25 -3 4 -17 7 -29 7 -13 0 -25 4 -28 9 -7 10 -61 20 -156 27 -36 3 -69
10 -74 15 -13 12 -397 11 -416 -1z m543 -113 c90 -26 156 -58 172 -81 17 -24
21 -161 5 -171 -5 -3 -10 -28 -10 -55 0 -31 -8 -63 -20 -85 -11 -20 -20 -42
-20 -51 0 -52 -107 -192 -177 -232 -28 -15 -468 -17 -478 -2 -3 6 -16 10 -29
10 -47 0 -121 110 -139 205 -5 28 -11 120 -14 205 l-4 155 39 38 c21 20 65 48
97 61 58 24 67 25 290 23 185 -2 241 -6 288 -20z m1289 7 c78 -20 94 -28 136
-67 l32 -31 0 -152 c0 -91 -4 -155 -10 -159 -5 -3 -10 -24 -10 -46 0 -51 -31
-112 -84 -167 -68 -72 -69 -72 -308 -72 -150 0 -224 4 -251 13 -45 16 -111 78
-138 129 -30 58 -69 183 -69 222 0 19 -5 47 -11 63 -6 15 -11 59 -11 96 0 52
4 73 18 89 27 29 111 70 154 74 20 2 47 8 61 13 13 5 115 10 226 10 154 1 216
-3 265 -15z"/>
<path d="M2106 6939 c-210 -29 -364 -92 -513 -211 -65 -51 -153 -147 -153
-166 0 -11 140 -139 182 -165 13 -9 59 -21 103 -27 44 -6 169 -29 278 -51 280
-54 350 -62 516 -56 154 5 235 21 360 72 l64 26 29 -28 c75 -71 189 -278 242
-437 33 -98 33 -110 4 -102 -13 4 -120 9 -238 13 -253 7 -320 -1 -524 -59
-173 -50 -229 -52 -346 -15 -224 70 -310 81 -597 75 -123 -3 -223 -1 -223 3 0
20 57 164 101 256 44 90 111 200 167 273 l19 25 -84 82 -83 83 -37 -57 c-98
-153 -185 -416 -209 -631 -4 -34 -11 -65 -15 -68 -5 -3 -9 -45 -9 -95 l0 -89
-27 0 c-41 0 -113 -39 -134 -74 -16 -25 -19 -45 -17 -101 3 -61 12 -86 61
-190 51 -108 58 -133 72 -235 9 -63 20 -140 26 -170 6 -30 14 -158 19 -285 8
-225 9 -234 53 -420 57 -239 102 -396 132 -455 42 -83 130 -148 235 -175 36
-9 96 -34 133 -56 115 -68 197 -89 422 -105 156 -11 505 20 650 58 206 53 449
227 522 373 46 92 118 618 129 935 8 251 35 399 96 540 62 141 72 219 40 293
-24 53 -67 81 -118 75 l-33 -4 -6 66 c-15 180 -76 450 -135 608 -137 365 -377
581 -725 653 -107 22 -333 32 -429 18z m216 -1377 c10 -10 35 -65 57 -124 61
-170 127 -254 237 -305 133 -61 357 -71 465 -21 110 51 164 134 197 304 l19
99 8 -77 c10 -103 -9 -308 -40 -438 -61 -250 -174 -380 -329 -380 -77 1 -141
26 -266 107 -53 34 -113 69 -134 78 -57 24 -226 36 -362 25 -134 -11 -169 -24
-324 -119 -155 -96 -239 -112 -335 -67 -165 76 -297 421 -294 767 1 112 8 107
28 -19 6 -39 21 -93 32 -118 29 -61 97 -127 167 -161 49 -24 71 -28 165 -32
129 -4 209 10 296 51 113 54 174 135 246 328 43 118 57 134 110 125 22 -3 48
-14 57 -23z m1124 -60 c37 -24 44 -101 18 -194 -27 -93 -38 -78 -56 73 -6 54
-8 105 -5 113 7 17 25 20 43 8z m-2326 -52 c11 -21 2 -190 -10 -190 -4 0 -16
12 -26 28 -19 28 -26 129 -12 165 10 23 35 22 48 -3z m1315 -926 c33 -8 64
-19 68 -23 4 -5 -4 -22 -18 -39 -68 -81 -314 -91 -411 -17 -57 43 -47 59 54
83 99 25 206 23 307 -4z m488 -246 c-3 -18 -12 -49 -20 -68 -12 -33 -13 -33
-8 -5 3 17 8 47 12 68 3 20 9 37 14 37 5 0 6 -15 2 -32z m-1537 -35 c-7 -7
-26 7 -26 19 0 6 6 6 15 -2 9 -7 13 -15 11 -17z m1477 -151 c-9 -29 -20 -52
-24 -52 -7 0 1 29 26 99 3 8 7 12 10 9 2 -2 -3 -27 -12 -56z m-798 -203 c7 -7
1 -8 -20 -3 -46 11 -67 26 -25 19 19 -3 39 -10 45 -16z"/>
<path d="M6533 5948 c-5 -7 -22 -38 -36 -69 -15 -32 -34 -62 -42 -69 -8 -7
-15 -18 -15 -24 0 -7 -14 -25 -31 -42 -17 -16 -48 -50 -69 -76 -21 -26 -40
-44 -44 -41 -3 4 -6 37 -6 75 0 73 -10 84 -37 41 -25 -41 -114 -123 -139 -129
-60 -15 -211 10 -287 47 -22 11 -47 19 -56 19 -10 0 -26 9 -36 20 -10 11 -28
20 -40 20 -12 0 -30 9 -40 20 -10 11 -28 20 -41 20 -13 0 -26 5 -29 10 -3 6
-17 10 -30 10 -13 0 -27 5 -30 10 -3 6 -35 10 -71 10 -57 0 -71 -4 -112 -32
-26 -18 -56 -40 -66 -50 -28 -25 -37 -23 -76 17 -19 20 -48 42 -64 50 -43 22
-138 19 -181 -5 -20 -11 -48 -20 -63 -20 -16 0 -50 -14 -78 -32 -27 -17 -71
-40 -99 -51 -166 -65 -175 -67 -253 -66 -42 0 -85 3 -94 7 -10 4 -46 36 -82
70 -36 35 -70 61 -76 57 -5 -3 -10 -19 -10 -36 0 -45 -30 -37 -86 25 -71 79
-92 109 -116 165 -30 73 -45 66 -52 -21 -12 -160 -17 -204 -26 -223 -8 -19
-12 -39 -26 -155 -3 -25 -10 -49 -15 -55 -5 -5 -9 -19 -9 -31 0 -13 -4 -26
-10 -29 -5 -3 -10 -21 -10 -39 0 -17 -4 -36 -9 -41 -5 -6 -12 -32 -15 -60 -4
-27 -11 -81 -17 -120 -6 -38 -13 -143 -15 -232 -5 -149 -3 -165 16 -202 11
-22 20 -48 20 -58 0 -10 9 -43 20 -73 11 -30 20 -62 20 -71 0 -9 7 -22 16 -30
9 -7 34 -48 55 -92 22 -43 55 -100 73 -126 19 -26 41 -62 50 -79 9 -18 20 -32
24 -32 9 0 52 81 52 99 0 22 33 91 43 91 11 0 -1 -147 -14 -173 -13 -22 -6
-389 8 -445 6 -23 17 -50 25 -60 9 -9 21 -35 28 -57 9 -28 42 -70 113 -142 56
-57 106 -103 113 -103 6 0 17 -6 23 -14 16 -19 88 -56 95 -49 3 3 -3 18 -12
32 -22 32 -38 85 -53 171 -5 36 -13 75 -16 88 -8 34 15 27 32 -10 8 -18 19
-40 24 -48 5 -8 16 -31 25 -51 8 -19 25 -44 37 -55 12 -10 25 -28 30 -39 20
-43 66 -96 217 -248 127 -128 170 -165 224 -193 36 -18 69 -38 72 -43 19 -30
126 -56 126 -31 0 6 -9 28 -20 49 -10 21 -33 78 -50 126 -29 85 -30 95 -30
257 0 143 2 168 15 168 12 0 15 -14 15 -67 0 -37 4 -80 9 -97 5 -17 20 -65 32
-106 36 -120 44 -132 86 -128 55 5 60 21 39 143 -10 59 -15 109 -12 112 3 4 6
0 6 -9 0 -8 6 -28 14 -44 8 -16 21 -45 31 -65 23 -52 107 -139 133 -139 27 0
35 14 23 37 -16 28 -44 124 -38 129 3 3 21 -19 41 -48 19 -30 46 -64 60 -77
l26 -24 61 31 c34 18 68 32 75 32 14 0 59 23 139 73 74 45 172 145 201 204 14
29 32 57 40 64 8 6 14 19 14 28 0 9 13 43 30 76 16 33 30 68 30 77 0 16 4 27
35 103 7 17 18 47 25 68 6 20 14 37 17 37 13 0 -13 -179 -31 -208 -12 -19 11
-22 31 -3 11 10 28 21 39 25 23 7 164 140 187 176 17 27 79 200 71 200 -2 0 3
16 11 36 12 30 15 96 15 378 0 317 -1 345 -20 394 -25 65 -25 78 0 109 19 24
20 41 20 338 l0 312 -31 89 c-35 97 -50 158 -50 189 2 54 -16 79 -36 53z
m-253 -425 c-36 -109 -139 -202 -277 -249 -59 -21 -200 -23 -264 -5 -31 8 -67
11 -105 6 -71 -9 -542 -8 -708 0 -83 4 -128 3 -148 -6 -45 -18 -213 -15 -273
5 -52 18 -130 60 -140 75 -3 5 25 -3 62 -19 38 -16 86 -34 108 -40 58 -17 257
-1 271 21 3 5 16 9 29 9 13 0 27 5 30 10 3 6 20 10 36 10 16 0 52 11 79 25 48
24 56 25 243 25 182 0 198 -2 263 -25 38 -14 82 -25 97 -25 16 0 49 -8 75 -19
117 -46 225 -53 333 -21 121 36 231 130 274 234 20 48 31 40 15 -11z"/>
<path d="M7775 4898 c-16 -5 -50 -20 -75 -31 -38 -19 -45 -27 -45 -51 0 -48
24 -54 93 -23 80 36 182 37 316 2 118 -31 206 -33 229 -7 39 43 4 72 -84 72
-36 0 -69 4 -74 9 -23 22 -312 46 -360 29z"/>
<path d="M9151 4901 c-8 -5 -51 -12 -95 -16 -45 -4 -86 -11 -91 -15 -6 -5 -25
-10 -44 -12 -45 -4 -62 -30 -37 -57 16 -18 31 -21 91 -21 39 0 75 4 81 9 5 5
27 11 49 14 22 3 63 10 90 16 94 19 177 14 229 -14 59 -31 70 -31 91 1 16 25
16 27 -5 49 -36 39 -106 55 -232 55 -62 0 -119 -4 -127 -9z"/>
<path d="M9841 4726 c-12 -14 -11 -22 4 -55 15 -34 15 -41 2 -67 -17 -35 -12
-54 13 -54 27 0 40 30 40 89 0 38 -6 56 -23 77 -21 24 -24 25 -36 10z"/>
<path d="M7885 4699 c-150 -48 -158 -52 -153 -82 5 -35 31 -42 88 -24 29 9 65
17 81 17 27 0 29 -3 29 -40 0 -70 67 -116 131 -90 30 13 59 54 59 85 0 16 8
18 52 15 33 -2 50 24 36 56 -11 23 -43 36 -161 63 -56 13 -120 13 -162 0z"/>
<path d="M9085 4698 c-16 -5 -48 -15 -70 -22 -34 -11 -40 -17 -43 -43 -4 -40
20 -60 53 -45 21 10 26 8 35 -8 5 -10 10 -25 10 -33 0 -7 10 -23 23 -35 56
-52 157 -9 157 67 l0 34 55 -7 c30 -3 66 -11 80 -18 21 -9 28 -8 45 7 35 32
23 65 -30 81 -25 8 -59 19 -76 24 -38 13 -199 11 -239 -2z"/>
<path d="M8439 4289 c-12 -23 1 -69 20 -69 6 0 27 -11 47 -25 45 -30 95 -32
150 -6 54 26 76 53 72 88 -4 34 -40 44 -68 18 -11 -10 -40 -20 -65 -23 -37 -4
-52 0 -75 17 -37 27 -66 27 -81 0z"/>
<path d="M5740 2446 c-72 -16 -114 -39 -164 -90 -87 -90 -125 -226 -106 -379
23 -187 132 -300 313 -326 211 -30 378 77 426 273 15 62 15 202 0 258 -28 105
-103 199 -189 237 -45 20 -153 42 -200 40 -14 0 -50 -6 -80 -13z m216 -132
c83 -43 132 -162 121 -299 -7 -93 -30 -147 -83 -193 -120 -107 -289 -70 -357
78 -26 56 -31 233 -8 290 30 74 75 117 151 141 41 14 133 4 176 -17z"/>
<path d="M5820 2312 c-83 -10 -150 -67 -171 -144 -13 -50 -16 -195 -3 -208 5
-5 8 21 7 61 -4 168 82 277 216 275 27 -1 47 2 45 5 -5 9 -62 15 -94 11z"/>
<path d="M7440 2446 c-72 -16 -114 -39 -164 -90 -87 -90 -125 -226 -106 -379
23 -187 132 -300 313 -326 211 -30 378 77 426 273 15 62 15 202 0 258 -28 105
-103 199 -189 237 -45 20 -153 42 -200 40 -14 0 -50 -6 -80 -13z m216 -132
c83 -43 132 -162 121 -299 -7 -93 -30 -147 -83 -193 -120 -107 -289 -70 -357
78 -26 56 -31 233 -8 290 30 74 75 117 151 141 41 14 133 4 176 -17z"/>
<path d="M7520 2312 c-83 -10 -150 -67 -171 -144 -13 -50 -16 -195 -3 -208 5
-5 8 21 7 61 -4 168 82 277 216 275 27 -1 47 2 45 5 -5 9 -62 15 -94 11z"/>
<path d="M8285 2454 c-153 -23 -241 -130 -213 -259 20 -95 100 -148 294 -196
47 -12 99 -31 117 -43 69 -47 56 -139 -26 -176 -50 -23 -134 -26 -180 -6 -41
17 -83 66 -92 106 -6 26 -11 30 -38 30 -18 0 -49 -3 -69 -6 -46 -8 -49 -26
-14 -99 30 -65 89 -118 157 -140 74 -25 216 -25 288 -1 155 53 214 256 106
368 -45 46 -99 71 -236 108 -128 35 -143 42 -165 75 -22 34 -14 74 19 99 22
16 46 22 105 24 92 4 133 -16 153 -72 l13 -36 68 0 68 0 0 30 c0 70 -63 144
-148 174 -44 16 -159 27 -207 20z"/>
<path d="M2310 2385 l0 -54 118 -3 117 -3 3 -332 2 -333 70 0 70 0 0 335 0
335 120 0 120 0 0 55 0 55 -310 0 -310 0 0 -55z"/>
<path d="M3050 2050 l0 -390 70 0 70 0 0 179 c0 103 5 192 11 208 25 68 99
105 165 83 59 -20 64 -43 64 -270 l0 -200 71 0 72 0 -5 223 c-4 182 -8 228
-21 254 -54 102 -200 125 -302 48 -25 -19 -47 -35 -50 -35 -3 0 -5 65 -5 145
l0 145 -70 0 -70 0 0 -390z"/>
<path d="M4680 2049 l0 -390 248 3 c242 3 248 3 292 28 61 35 103 103 108 180
6 81 -27 138 -98 172 -27 13 -49 28 -49 33 0 6 14 19 32 30 66 42 95 142 63
218 -17 43 -76 93 -123 106 -21 6 -135 11 -255 11 l-218 0 0 -391z m440 256
c27 -28 39 -73 28 -112 -14 -53 -52 -67 -200 -71 l-128 -4 0 107 0 107 140 -4
c125 -3 142 -5 160 -23z m8 -313 c54 -30 72 -120 35 -171 -30 -39 -74 -50
-215 -50 l-128 -1 0 121 0 121 143 -4 c87 -2 151 -9 165 -16z"/>
<path d="M4840 2230 c0 -47 4 -80 10 -80 6 0 10 30 10 70 l0 70 118 1 c140 2
107 16 -40 18 l-98 1 0 -80z"/>
<path d="M4840 1890 c0 -53 4 -90 10 -90 6 0 10 35 10 86 l0 86 120 -3 c66 -2
120 -1 120 4 0 4 -58 7 -130 7 l-130 0 0 -90z"/>
<path d="M6380 2050 l0 -390 70 0 70 0 0 165 0 165 63 0 c93 0 95 -1 228 -197
l89 -133 86 0 c65 0 83 3 78 13 -68 116 -160 241 -209 284 l-59 52 29 6 c58
13 106 39 140 77 19 21 35 41 35 46 1 4 5 27 10 52 20 106 -36 206 -133 235
-38 11 -104 15 -274 15 l-223 0 0 -390z m456 247 c50 -58 43 -137 -16 -171
-29 -17 -57 -21 -167 -24 l-133 -4 0 117 0 116 146 -3 c146 -3 146 -3 170 -31z"/>
<path d="M6540 2215 c0 -50 4 -85 10 -85 6 0 10 34 10 81 l0 81 124 -4 c68 -2
122 0 119 5 -2 4 -62 7 -134 7 l-129 0 0 -85z"/>
<path d="M2948 2364 l-3 -59 -117 -3 -118 -3 0 -334 0 -335 -65 0 c-38 0 -65
-4 -65 -10 0 -7 27 -10 73 -8 l72 3 5 335 5 335 115 5 115 5 3 54 c2 30 -1 58
-7 64 -7 7 -11 -10 -13 -49z"/>
<path d="M3210 2305 c0 -75 4 -114 10 -110 6 3 10 52 10 110 0 58 -4 107 -10
110 -6 4 -10 -35 -10 -110z"/>
<path d="M8284 2313 c-12 -2 -31 -14 -43 -27 -17 -18 -20 -28 -12 -47 6 -14
10 -18 10 -8 1 28 45 58 106 73 l60 14 -50 0 c-27 0 -60 -3 -71 -5z"/>
<path d="M2383 2293 c26 -2 68 -2 95 0 26 2 4 3 -48 3 -52 0 -74 -1 -47 -3z"/>
<path d="M5311 2206 c-9 -39 -52 -105 -73 -114 -15 -7 -8 -22 11 -22 29 0 71
69 78 128 7 64 -1 67 -16 8z"/>
<path d="M7040 2214 c0 -88 -80 -191 -162 -209 -20 -5 -27 -10 -20 -17 14 -14
77 7 120 39 30 22 61 68 70 103 6 25 5 110 -2 117 -3 4 -6 -11 -6 -33z"/>
<path d="M8671 2233 c-1 -21 -6 -23 -58 -23 -32 0 -65 -5 -73 -11 -11 -7 5 -9
57 -7 79 4 95 12 83 43 -8 19 -9 19 -9 -2z"/>
<path d="M3854 2211 c-102 -46 -162 -167 -151 -305 3 -40 12 -88 20 -107 40
-96 132 -151 251 -151 89 0 146 22 190 74 50 58 52 75 7 82 -20 4 -48 9 -63
12 -21 4 -28 1 -33 -16 -9 -29 -63 -60 -105 -60 -69 0 -136 71 -128 138 l3 27
188 3 187 2 0 48 c0 162 -106 272 -260 272 -42 0 -80 -7 -106 -19z m174 -91
c35 -21 62 -72 62 -115 l0 -25 -125 0 -125 0 0 28 c0 65 66 132 130 132 14 0
40 -9 58 -20z"/>
<path d="M3905 2088 c-25 -23 -52 -88 -35 -88 5 0 15 12 22 27 19 39 71 72
104 65 19 -3 25 -1 20 7 -13 20 -83 13 -111 -11z"/>
<path d="M6241 2134 c0 -11 3 -14 6 -6 3 7 2 16 -1 19 -3 4 -6 -2 -5 -13z"/>
<path d="M7941 2134 c0 -11 3 -14 6 -6 3 7 2 16 -1 19 -3 4 -6 -2 -5 -13z"/>
<path d="M3273 2100 c-12 -5 -30 -21 -40 -36 -16 -24 -18 -56 -21 -231 l-4
-203 -64 0 c-41 0 -63 -4 -59 -10 7 -12 132 -13 139 -2 3 5 6 92 6 194 1 146
5 191 17 217 21 42 57 65 99 64 19 -1 31 3 28 8 -7 11 -72 11 -101 -1z"/>
<path d="M6247 2017 c-7 -96 -34 -184 -76 -242 -67 -95 -192 -155 -319 -155
-83 0 -75 -11 10 -14 162 -5 301 73 358 200 27 63 48 173 44 233 -2 30 -5 56
-7 58 -2 2 -7 -34 -10 -80z"/>
<path d="M7947 2017 c-7 -96 -34 -184 -76 -242 -67 -95 -192 -155 -319 -155
-83 0 -75 -11 10 -14 162 -5 301 73 358 200 27 63 48 173 44 233 -2 30 -5 56
-7 58 -2 2 -7 -34 -10 -80z"/>
<path d="M3588 1855 l-3 -220 -57 -3 c-79 -4 -73 -22 7 -22 l64 0 3 208 c2
114 0 218 -4 232 -3 14 -8 -74 -10 -195z"/>
<path d="M4240 2001 c0 -6 4 -13 10 -16 6 -3 7 1 4 9 -7 18 -14 21 -14 7z"/>
<path d="M6540 1800 l0 -170 -65 0 c-38 0 -65 -4 -65 -10 0 -7 27 -10 73 -8
l72 3 3 167 2 168 28 6 c48 10 48 12 0 13 l-48 1 0 -170z"/>
<path d="M4249 1925 l-4 -40 -192 -3 c-106 -1 -193 -6 -192 -10 0 -4 4 -16 9
-27 7 -16 9 -16 9 -4 1 9 8 20 17 23 9 3 94 6 190 6 193 0 196 1 177 63 l-10
32 -4 -40z"/>
<path d="M8691 1877 c-1 -40 -9 -72 -25 -105 -51 -100 -129 -142 -275 -150
-51 -3 -87 -8 -80 -12 23 -12 211 6 254 24 103 44 163 160 136 266 -8 33 -9
31 -10 -23z"/>
<path d="M5358 1874 c-5 -4 -8 -19 -8 -33 0 -67 -83 -169 -157 -191 -22 -7
-134 -14 -260 -17 -142 -4 -223 -9 -223 -16 0 -13 414 -2 484 13 88 18 144 73
167 163 11 46 9 94 -3 81z"/>
<path d="M4202 1732 c-44 -70 -125 -111 -227 -113 -38 -1 -44 -3 -25 -8 90
-26 223 22 271 97 26 41 30 62 11 62 -4 0 -17 -17 -30 -38z"/>
<path d="M5750 1626 c0 -2 7 -7 16 -10 8 -3 12 -2 9 4 -6 10 -25 14 -25 6z"/>
<path d="M6935 1620 c3 -5 44 -10 91 -10 49 0 84 4 84 10 0 6 -37 10 -91 10
-57 0 -88 -4 -84 -10z"/>
<path d="M7450 1626 c0 -2 7 -7 16 -10 8 -3 12 -2 9 4 -6 10 -25 14 -25 6z"/>
</g>
</svg>
