<?xml version="1.0" standalone="no"?>
<!DOCTYPE svg PUBLIC "-//W3C//DTD SVG 20010904//EN"
 "http://www.w3.org/TR/2001/REC-SVG-20010904/DTD/svg10.dtd">
<svg version="1.0" xmlns="http://www.w3.org/2000/svg"
 width="1500.000000pt" height="1500.000000pt" viewBox="0 0 1500.000000 1500.000000"
 preserveAspectRatio="xMidYMid meet">

<g transform="translate(0.000000,1500.000000) scale(0.100000,-0.100000)"
fill="#000000" stroke="none">
<path d="M6910 13400 c-762 -78 -1358 -247 -1996 -568 -576 -289 -992 -589
-1455 -1052 -229 -228 -349 -365 -520 -590 -466 -612 -796 -1304 -979 -2053
-101 -413 -144 -749 -156 -1217 -35 -1281 374 -2525 1170 -3559 347 -451 842
-915 1312 -1228 468 -312 954 -544 1484 -707 389 -119 670 -175 1130 -226 156
-17 656 -24 870 -11 1067 61 2081 425 2952 1059 747 544 1363 1279 1758 2097
296 614 471 1243 542 1950 18 177 17 845 0 1025 -94 948 -395 1801 -907 2575
-317 479 -701 903 -1147 1267 -709 579 -1577 986 -2468 1157 -390 75 -576 92
-1030 97 -314 2 -405 0 -560 -16z m1035 -325 c930 -90 1817 -425 2575 -973
577 -417 1079 -964 1447 -1577 415 -691 669 -1481 735 -2285 19 -229 16 -768
-5 -960 -28 -259 -70 -504 -131 -761 -23 -98 -114 -409 -135 -461 -5 -13 -19
-50 -31 -83 -266 -723 -669 -1354 -1220 -1906 -213 -214 -383 -363 -584 -513
-365 -273 -794 -514 -1196 -673 -583 -230 -1117 -345 -1737 -375 -763 -36
-1489 84 -2198 365 -250 99 -507 225 -732 358 -1106 656 -1923 1665 -2336
2889 -350 1034 -364 2205 -40 3249 122 393 297 786 503 1131 245 409 476 706
810 1040 427 428 867 744 1405 1010 448 221 864 361 1365 459 205 40 476 72
720 85 140 8 633 -4 785 -19z"/>
<path d="M7195 11280 c-106 -9 -178 -23 -258 -50 -31 -11 -62 -20 -68 -20 -24
0 -138 -56 -233 -114 -105 -65 -242 -196 -270 -258 -8 -18 -21 -44 -29 -58 -8
-14 -28 -55 -46 -93 -29 -64 -31 -74 -31 -186 0 -65 3 -159 6 -209 l7 -92 97
0 97 0 6 113 c4 71 14 136 27 173 11 32 20 68 20 79 1 65 198 289 297 339 66
33 101 35 58 4 -53 -39 -166 -152 -196 -196 -75 -111 -109 -219 -116 -368 -4
-72 -2 -118 6 -132 12 -22 103 -57 126 -48 11 4 15 23 15 77 0 166 70 300 218
418 46 36 58 29 16 -10 -32 -30 -105 -148 -134 -217 -20 -46 -22 -65 -18 -164
4 -101 7 -113 27 -130 13 -10 35 -18 50 -18 23 0 31 10 68 88 52 111 159 231
229 258 31 12 48 14 55 7 8 -8 -5 -23 -44 -51 -67 -50 -156 -149 -163 -182 -4
-14 -15 -43 -25 -66 -25 -53 -24 -71 4 -85 42 -24 113 -32 312 -36 186 -4 203
-3 260 18 103 37 296 138 395 206 115 80 136 97 270 227 218 211 239 223 324
191 83 -32 75 -11 -40 102 -196 191 -341 287 -577 382 -130 53 -204 73 -332
90 -112 15 -303 20 -410 11z"/>
<path d="M8268 10374 c-62 -59 -137 -125 -165 -148 -29 -22 -53 -48 -53 -57 0
-9 31 -53 68 -97 94 -112 205 -321 247 -467 9 -33 28 -96 40 -140 13 -44 27
-105 31 -135 3 -30 10 -64 14 -76 5 -12 16 -72 25 -135 9 -63 21 -131 28 -153
10 -34 12 -36 23 -21 7 10 16 38 20 64 4 25 17 79 30 119 13 40 24 86 24 103
0 17 9 61 20 97 18 63 47 373 35 392 -2 4 -9 45 -14 91 -8 73 -22 121 -81 289
-53 149 -157 380 -171 380 -4 0 -59 -48 -121 -106z"/>
<path d="M6016 10371 c-135 -72 -208 -164 -267 -337 l-40 -115 5 -332 c4 -324
7 -371 41 -547 17 -85 21 -97 30 -88 7 7 23 95 41 223 8 61 19 126 24 145 5
19 14 67 19 105 13 87 97 341 151 454 22 46 69 118 105 162 36 43 65 86 65 96
0 10 -11 54 -25 98 -14 44 -25 89 -25 100 0 29 -28 65 -50 65 -10 0 -43 -13
-74 -29z"/>
<path d="M10195 9301 c-209 -6 -224 -7 -295 -34 -147 -54 -333 -168 -450 -274
-47 -43 -48 -43 -122 -43 -102 0 -166 -21 -225 -74 -49 -45 -104 -139 -130
-226 -20 -65 -26 -262 -15 -438 9 -134 13 -157 34 -188 12 -19 35 -40 51 -47
33 -14 31 -10 57 -167 30 -175 42 -305 35 -376 -6 -54 -10 -62 -36 -78 -36
-21 -65 -51 -90 -91 -16 -25 -19 -50 -19 -155 1 -166 18 -258 69 -362 50 -102
111 -168 188 -206 l57 -27 38 -110 c111 -318 163 -415 311 -570 233 -247 542
-392 897 -423 125 -11 120 -12 299 24 181 37 324 97 496 211 94 63 253 218
314 306 40 59 114 213 134 282 76 252 78 256 113 271 43 18 44 44 3 78 -65 55
-111 27 -150 -92 -26 -79 -55 -110 -263 -281 -118 -97 -144 -114 -181 -119
-62 -7 -105 12 -195 83 -154 123 -251 150 -520 149 -157 -1 -199 -4 -275 -23
-116 -29 -256 -96 -323 -154 -30 -27 -67 -49 -87 -53 -64 -12 -98 8 -328 189
-134 104 -129 98 -182 252 -15 44 -31 85 -36 91 -5 6 -32 14 -59 18 -62 8
-102 41 -139 115 -75 151 -108 334 -78 435 12 38 15 40 75 54 l63 14 56 -32
c39 -22 59 -28 66 -21 8 8 34 144 77 399 1 11 47 -6 140 -53 223 -112 403
-172 650 -216 103 -19 606 -19 710 -1 253 45 443 108 666 219 62 31 119 53
127 50 10 -4 17 -27 21 -79 4 -40 13 -111 21 -158 8 -47 17 -106 21 -132 3
-27 10 -48 16 -48 6 0 39 16 73 35 56 31 67 34 114 28 45 -5 55 -3 76 17 32
30 32 53 -2 84 l-27 25 13 173 c7 95 16 193 22 218 16 76 24 654 10 735 -25
143 -121 316 -237 425 -167 158 -318 247 -554 328 l-116 40 -379 4 c-209 3
-479 2 -600 -1z m309 -3236 c64 -20 141 -19 205 2 68 22 101 9 101 -40 0 -42
-18 -58 -93 -86 -75 -27 -159 -27 -233 0 -91 34 -117 76 -74 119 24 24 30 24
94 5z"/>
<path d="M6250 9287 c-96 -4 -211 -16 -255 -26 l-79 -17 -9 -40 c-13 -57 -1
-198 18 -228 9 -14 22 -58 29 -98 17 -92 42 -198 63 -265 12 -41 30 -66 77
-112 105 -100 115 -103 372 -109 l221 -5 60 32 c143 77 200 159 280 406 32 99
64 135 121 135 67 0 102 -33 135 -125 61 -169 82 -221 99 -244 10 -13 18 -30
18 -37 0 -26 72 -93 128 -120 121 -57 492 -58 612 -1 31 15 70 41 87 59 41 43
95 183 126 328 13 63 34 134 45 157 18 35 22 59 22 142 0 135 3 132 -185 151
-258 27 -328 31 -440 25 -187 -9 -273 -23 -365 -56 -119 -42 -151 -48 -270
-48 -110 -1 -131 3 -245 42 -38 14 -95 27 -125 31 -30 4 -82 11 -115 16 -94
14 -235 17 -425 7z m560 -126 c76 -27 112 -45 133 -66 35 -34 30 -179 -9 -295
-9 -25 -19 -58 -23 -75 -20 -77 -119 -208 -182 -240 -38 -20 -455 -21 -512 -2
-52 19 -91 59 -122 129 -34 76 -45 150 -45 325 l0 141 38 30 c40 31 91 60 132
73 14 5 138 7 275 5 229 -3 255 -5 315 -25z m1341 1 c30 -12 70 -37 88 -56
l32 -33 -4 -154 c-7 -226 -23 -287 -98 -372 -65 -74 -76 -77 -328 -77 -243 0
-260 3 -325 60 -50 45 -81 100 -110 200 -33 115 -46 193 -46 277 0 68 1 72 33
99 81 68 166 83 462 81 221 -3 244 -4 296 -25z"/>
<path d="M3860 9251 c-210 -42 -379 -131 -519 -272 -92 -94 -92 -92 -35 -150
95 -97 141 -126 229 -143 585 -112 644 -120 825 -113 157 7 261 27 375 74 l68
28 34 -40 c102 -118 234 -378 258 -509 l8 -39 -44 6 c-24 4 -127 9 -229 13
-217 7 -291 -1 -505 -56 -216 -55 -240 -56 -360 -24 -288 77 -279 75 -577 81
-212 4 -278 9 -278 18 0 50 147 350 235 476 l52 77 -81 81 c-45 45 -85 81 -88
81 -14 0 -99 -156 -133 -245 -76 -197 -132 -441 -142 -622 l-5 -93 -31 0 c-37
0 -108 -40 -131 -74 -11 -17 -16 -47 -16 -92 0 -56 6 -80 41 -158 23 -50 50
-116 60 -146 32 -90 67 -357 79 -605 10 -198 17 -252 46 -386 39 -179 93 -379
124 -462 43 -114 121 -186 247 -228 38 -12 118 -46 178 -75 141 -68 216 -84
436 -91 324 -10 639 36 804 120 159 79 336 241 373 339 43 115 106 572 122
895 17 330 29 391 129 673 37 102 39 166 10 227 -24 49 -61 73 -113 73 -34 0
-35 1 -41 48 -51 401 -142 703 -272 899 -51 78 -175 207 -243 253 -132 90
-276 144 -440 166 -140 18 -343 16 -450 -5z m275 -1383 c29 -13 54 -56 91
-155 60 -159 127 -244 231 -294 115 -55 295 -74 421 -44 144 34 221 127 260
315 9 44 20 80 24 80 15 0 8 -237 -12 -365 -53 -352 -185 -529 -384 -513 -72
6 -130 32 -275 122 -131 82 -169 91 -376 91 -193 -1 -251 -15 -395 -100 -168
-99 -196 -110 -281 -110 -67 0 -81 3 -125 30 -140 87 -250 349 -272 651 -5 66
-7 138 -3 160 6 38 7 37 20 -36 26 -146 68 -213 180 -290 102 -70 360 -66 507
8 106 53 177 151 248 339 45 118 75 141 141 111z m1189 -87 c27 -29 31 -91 11
-171 -27 -110 -48 -83 -61 80 -3 48 -3 93 0 99 11 17 31 13 50 -8z m-2408 -29
c6 -4 14 -18 17 -32 8 -32 -3 -170 -14 -170 -22 0 -42 54 -43 118 -1 82 10
105 40 84z m1372 -965 c29 -8 55 -17 59 -20 13 -13 -31 -60 -75 -80 -65 -29
-208 -35 -286 -13 -67 20 -128 68 -109 87 7 7 43 21 80 31 80 21 245 19 331
-5z m478 -292 l-16 -40 6 40 c3 22 8 47 11 55 5 13 7 13 10 0 2 -9 -3 -33 -11
-55z m-1566 15 c0 -5 -2 -10 -4 -10 -3 0 -8 5 -11 10 -3 6 -1 10 4 10 6 0 11
-4 11 -10z m1520 -157 c-13 -40 -30 -66 -30 -45 0 18 32 93 37 88 3 -3 0 -22
-7 -43z m-824 -215 c4 -6 -2 -7 -17 -3 -35 10 -45 23 -15 18 15 -3 29 -10 32
-15z"/>
<path d="M8452 8203 c-45 -88 -93 -156 -158 -225 l-59 -63 -5 70 c-3 40 -10
70 -16 70 -5 0 -26 -18 -45 -40 -71 -83 -118 -114 -169 -114 -83 -1 -299 61
-348 100 -14 10 -33 19 -42 19 -10 0 -23 6 -29 14 -16 19 -168 66 -213 66 -50
0 -83 -14 -145 -61 -29 -21 -57 -39 -64 -39 -6 0 -31 18 -56 40 -71 62 -164
76 -243 35 -16 -8 -39 -15 -52 -15 -13 0 -57 -19 -98 -41 -41 -23 -118 -57
-170 -77 -84 -32 -106 -36 -187 -36 l-92 1 -76 66 c-42 37 -80 67 -86 67 -5 0
-9 -10 -9 -23 0 -36 -18 -48 -46 -30 -37 24 -129 143 -160 206 -16 31 -31 57
-35 57 -13 0 -19 -33 -29 -150 -5 -65 -16 -144 -25 -176 -8 -32 -15 -72 -15
-90 0 -32 -24 -124 -41 -156 -5 -10 -9 -28 -9 -40 0 -13 -7 -41 -14 -63 -22
-64 -40 -257 -41 -430 l0 -160 41 -128 c23 -70 48 -136 56 -145 8 -9 32 -48
52 -87 54 -99 139 -235 149 -235 4 0 19 26 33 58 14 31 34 75 45 97 l19 40 -7
-85 c-4 -47 -7 -188 -7 -315 l-1 -230 44 -88 c63 -127 211 -280 329 -341 19
-10 36 -15 39 -13 2 3 -5 24 -17 48 -12 23 -31 85 -41 137 -32 159 -23 169 41
43 21 -43 49 -91 62 -107 13 -16 37 -49 53 -73 42 -63 343 -361 393 -391 24
-14 69 -42 100 -62 60 -39 132 -60 132 -38 0 6 -21 64 -46 128 l-47 117 -5
151 c-5 150 1 229 17 220 4 -3 11 -40 14 -83 5 -78 55 -256 83 -300 17 -27 65
-31 84 -8 13 15 11 80 -5 190 -6 37 -4 35 32 -33 41 -79 124 -172 154 -172 24
0 32 15 21 37 -17 31 -41 123 -33 123 4 0 29 -29 54 -65 26 -36 54 -68 61 -71
8 -3 37 6 64 20 28 14 69 32 91 39 140 49 325 220 390 362 32 71 64 152 76
193 18 65 56 165 66 176 19 20 -2 -136 -26 -196 -18 -46 76 14 186 119 81 77
96 107 151 283 22 73 23 87 23 435 0 321 -2 364 -17 399 -10 21 -18 49 -18 63
0 13 8 36 18 50 15 24 17 62 20 339 l3 313 -37 108 c-20 59 -42 139 -48 177
-7 38 -17 71 -24 74 -6 2 -24 -23 -40 -55z m-232 -384 c-15 -51 -57 -115 -104
-156 -104 -92 -232 -132 -375 -118 -101 9 -1045 9 -1142 0 -97 -9 -193 7 -270
45 -75 38 -86 56 -17 29 122 -49 136 -52 246 -47 66 3 121 10 142 20 19 8 55
21 80 27 25 7 65 19 90 28 84 29 145 35 305 31 123 -4 177 -10 235 -26 289
-82 306 -86 380 -85 169 2 335 100 402 238 25 52 41 60 28 14z"/>
<path d="M11200 7181 c-25 -4 -83 -13 -130 -20 -108 -16 -187 -38 -193 -56 -3
-7 4 -21 15 -32 28 -25 116 -24 247 5 131 28 233 29 296 2 60 -26 80 -25 100
3 15 21 14 23 -14 49 -17 15 -47 31 -68 37 -54 14 -200 21 -253 12z"/>
<path d="M9702 7154 c-63 -26 -83 -52 -68 -89 7 -20 32 -19 101 5 79 27 173
26 325 -6 138 -29 191 -27 224 6 l21 21 -24 20 c-13 10 -38 19 -56 19 -17 0
-74 9 -126 20 -52 11 -148 22 -214 25 -114 5 -123 4 -183 -21z"/>
<path d="M11871 6996 c-9 -11 -10 -24 -1 -53 9 -28 9 -50 2 -77 -9 -30 -8 -38
4 -43 27 -10 43 6 49 51 11 73 -26 156 -54 122z"/>
<path d="M9851 6964 c-98 -26 -141 -50 -141 -78 0 -35 30 -41 105 -21 35 10
70 15 78 12 8 -3 17 -25 20 -49 15 -112 157 -121 186 -12 6 25 13 29 48 32 43
3 58 20 48 53 -7 21 -85 52 -170 68 -75 14 -107 13 -174 -5z"/>
<path d="M11108 6970 c-27 -4 -65 -17 -85 -27 -33 -16 -38 -22 -38 -53 0 -34
1 -35 38 -33 36 2 39 0 57 -41 14 -34 26 -46 53 -55 61 -21 127 24 127 86 0
39 13 41 103 18 75 -19 74 -19 93 10 16 24 15 27 -1 45 -9 10 -38 26 -64 35
-54 19 -215 28 -283 15z"/>
<path d="M10443 6563 c-7 -2 -13 -20 -13 -38 0 -30 6 -36 55 -64 65 -37 118
-40 175 -11 65 33 88 88 49 113 -12 7 -28 4 -61 -11 -55 -27 -88 -28 -135 -2
-38 20 -48 22 -70 13z"/>
<path d="M7650 4656 c-65 -18 -101 -39 -148 -87 -178 -178 -148 -557 53 -670
140 -78 311 -77 437 3 91 58 141 145 159 277 26 190 -35 347 -167 434 -73 49
-237 70 -334 43z m240 -136 c74 -38 120 -138 120 -265 0 -135 -48 -225 -145
-274 -38 -19 -58 -22 -111 -19 -78 5 -134 40 -178 112 -27 44 -30 57 -34 159
-2 64 0 129 7 152 15 56 66 113 125 142 43 20 61 23 113 19 34 -3 80 -14 103
-26z"/>
<path d="M7703 4513 c-12 -2 -42 -22 -67 -44 -34 -30 -50 -53 -61 -92 -17 -57
-21 -212 -5 -202 6 3 10 35 10 70 0 86 29 163 80 209 40 36 49 40 130 55 l45
9 -55 0 c-30 -1 -65 -3 -77 -5z"/>
<path d="M9388 4655 c-122 -33 -220 -145 -249 -283 -6 -32 -9 -100 -7 -157 6
-130 37 -203 115 -275 174 -159 484 -120 594 75 67 120 79 310 25 429 -34 76
-86 139 -139 170 -86 50 -240 69 -339 41z m192 -116 c60 -14 100 -46 134 -109
24 -44 30 -68 34 -145 6 -122 -9 -181 -59 -239 -106 -120 -278 -114 -362 13
-36 54 -47 103 -47 209 0 138 39 214 134 258 55 26 97 29 166 13z"/>
<path d="M9442 4512 c-39 -12 -94 -63 -114 -109 -22 -50 -37 -216 -21 -226 7
-4 12 24 15 77 8 149 71 230 196 252 l67 12 -60 0 c-33 0 -70 -3 -83 -6z"/>
<path d="M10213 4651 c-69 -24 -117 -62 -142 -114 -42 -86 -17 -191 58 -245
48 -35 61 -40 216 -88 147 -46 181 -72 172 -135 -10 -72 -66 -109 -167 -109
-89 0 -142 34 -175 113 -12 30 -20 37 -43 37 -53 0 -101 -13 -107 -27 -7 -20
34 -108 69 -150 15 -18 53 -45 84 -60 52 -26 66 -28 172 -28 140 0 190 16 249
80 56 60 78 138 61 212 -23 103 -96 155 -300 213 -136 38 -173 64 -168 119 4
51 42 74 126 79 90 5 134 -13 162 -67 l20 -41 70 0 c64 0 70 2 70 20 0 32 -28
92 -58 123 -73 77 -249 110 -369 68z"/>
<path d="M4150 4595 l0 -55 120 0 120 0 0 -187 c0 -104 3 -259 7 -346 l6 -158
66 3 66 3 3 343 2 342 120 0 120 0 0 55 0 55 -315 0 -315 0 0 -55z"/>
<path d="M4910 4250 l0 -400 69 0 69 0 4 198 c4 219 8 233 71 273 37 23 119
22 143 -3 23 -23 34 -120 34 -300 l0 -168 71 0 72 0 -5 228 c-3 125 -10 238
-16 252 -16 41 -70 87 -119 101 -61 17 -140 0 -196 -41 -22 -16 -45 -30 -49
-30 -4 0 -8 65 -8 145 l0 145 -70 0 -70 0 0 -400z"/>
<path d="M6580 4250 l0 -399 218 5 c320 7 315 6 373 64 55 55 73 107 67 188
-6 63 -29 98 -87 131 -23 13 -45 29 -48 37 -2 7 12 28 33 46 105 93 80 249
-51 309 -35 16 -68 19 -272 19 l-233 0 0 -400z m404 280 c53 -12 68 -30 73
-87 9 -90 -31 -111 -222 -114 l-110 -2 -3 107 -3 106 113 0 c62 0 131 -5 152
-10z m16 -329 c61 -12 90 -47 90 -110 0 -60 -26 -96 -78 -111 -20 -5 -94 -10
-164 -10 l-128 0 0 120 0 120 118 0 c64 -1 137 -5 162 -9z"/>
<path d="M6740 4453 c0 -38 5 -75 10 -83 7 -10 10 7 10 58 l0 72 103 0 c69 0
97 3 87 10 -8 5 -59 10 -112 10 l-98 0 0 -67z"/>
<path d="M6740 4103 c0 -43 5 -85 10 -93 7 -10 10 12 10 72 l0 87 123 4 122 3
-132 2 -133 2 0 -77z"/>
<path d="M8322 4253 l3 -398 68 -3 67 -3 0 171 0 170 70 0 c65 0 73 -2 105
-32 20 -18 77 -94 128 -168 l93 -135 77 0 c42 1 79 4 83 8 12 12 -118 198
-192 275 -38 40 -68 75 -65 76 3 2 20 6 36 10 46 11 112 53 139 89 18 24 27
51 32 99 6 61 4 73 -20 123 -21 42 -38 61 -74 83 l-47 27 -253 3 -252 3 2
-398z m428 278 c60 -17 90 -122 49 -174 -27 -35 -70 -45 -214 -49 l-120 -3 -3
118 -3 117 133 -1 c73 -1 144 -4 158 -8z"/>
<path d="M8485 4500 c-4 -6 -3 -45 1 -88 8 -87 21 -70 23 30 l1 57 118 4 117
3 -127 2 c-79 1 -129 -2 -133 -8z"/>
<path d="M4808 4600 c-4 -14 -8 -40 -8 -57 l0 -33 -120 0 -120 0 -2 -342 -3
-343 -65 -5 c-41 -3 -58 -8 -47 -12 10 -4 45 -5 77 -1 l60 6 0 276 c0 152 3
306 7 344 l6 67 101 0 c56 0 107 4 114 9 9 5 12 25 10 62 -2 42 -5 48 -10 29z"/>
<path d="M5076 4604 c-10 -25 -7 -168 4 -184 7 -10 10 19 10 93 0 59 -2 107
-4 107 -2 0 -7 -7 -10 -16z"/>
<path d="M10274 4523 c-30 -6 -68 -48 -60 -68 5 -14 9 -12 28 10 13 14 48 35
78 45 l55 19 -40 -1 c-22 0 -50 -3 -61 -5z"/>
<path d="M7230 4432 c0 -24 -37 -91 -68 -124 -25 -27 -25 -28 -4 -28 32 0 72
59 79 119 3 28 3 51 -1 51 -3 0 -6 -8 -6 -18z"/>
<path d="M9000 4428 c-2 -77 -64 -169 -139 -205 -51 -26 -54 -28 -28 -31 42
-5 108 37 145 92 27 41 32 57 32 107 0 33 -2 59 -5 59 -3 0 -5 -10 -5 -22z"/>
<path d="M10667 4437 c-5 -13 -19 -17 -54 -18 -76 -1 -100 -17 -27 -18 63 -1
100 15 92 39 -3 11 -6 10 -11 -3z"/>
<path d="M5764 4429 c-54 -13 -118 -69 -152 -133 -25 -47 -27 -60 -27 -166 0
-127 8 -152 67 -211 69 -68 189 -95 294 -64 46 13 69 27 102 62 23 25 42 52
42 60 0 31 -122 47 -134 18 -9 -24 -68 -55 -106 -55 -69 0 -130 63 -130 133 0
21 6 25 46 31 26 3 114 6 197 6 l150 0 -7 67 c-16 157 -100 247 -242 257 -32
3 -77 1 -100 -5z m119 -93 c50 -21 79 -59 84 -110 l6 -46 -127 0 -126 0 0 31
c0 46 37 98 84 120 49 22 40 22 79 5z"/>
<path d="M5810 4302 c-20 -9 -42 -32 -52 -51 -23 -46 -13 -53 18 -13 29 37 72
62 106 62 19 0 20 2 8 10 -22 14 -40 12 -80 -8z"/>
<path d="M5114 4286 c-27 -22 -28 -29 -35 -142 -4 -66 -8 -165 -8 -221 l-1
-102 -62 -3 c-60 -3 -61 -4 -25 -12 20 -4 52 -5 71 -2 l34 6 4 198 c5 248 13
267 115 291 l38 9 -52 1 c-41 1 -58 -4 -79 -23z"/>
<path d="M9923 4195 c-27 -227 -142 -346 -365 -380 l-93 -14 95 3 c111 5 166
22 235 74 93 70 149 206 143 347 l-3 70 -12 -100z"/>
<path d="M8185 4213 c-24 -236 -141 -362 -366 -397 l-94 -14 70 -1 c39 0 93 5
120 13 179 47 268 166 282 379 7 103 -2 117 -12 20z"/>
<path d="M5460 4030 l0 -200 -29 0 c-16 0 -43 -3 -62 -7 -28 -5 -30 -7 -14
-14 11 -4 41 -8 68 -8 l47 -1 0 215 c0 118 -2 215 -5 215 -3 0 -5 -90 -5 -200z"/>
<path d="M8487 4163 c-4 -3 -7 -82 -7 -175 l0 -168 -62 0 c-46 -1 -59 -3 -46
-10 9 -6 41 -7 72 -4 l56 7 0 71 c0 39 3 115 7 168 6 93 7 98 32 107 25 9 25
9 -10 10 -20 1 -39 -2 -42 -6z"/>
<path d="M6141 4130 c-2 -47 -13 -50 -200 -50 -174 0 -211 -6 -196 -30 6 -9 9
-9 16 1 6 11 52 15 193 19 202 5 215 9 198 57 l-10 28 -1 -25z"/>
<path d="M10691 4079 c-1 -52 -27 -120 -62 -162 -46 -56 -111 -84 -221 -98
-51 -6 -95 -13 -98 -16 -8 -9 182 6 225 18 108 30 190 158 165 259 l-8 35 -1
-36z"/>
<path d="M7266 4033 c-9 -50 -65 -130 -113 -163 -43 -30 -98 -38 -248 -40
-175 -3 -298 -13 -260 -23 40 -10 438 9 489 24 49 14 121 85 136 136 6 21 10
54 8 73 l-3 35 -9 -42z"/>
<path d="M6086 3925 c-47 -61 -93 -88 -180 -107 l-81 -17 57 0 c95 -1 190 44
230 110 35 57 15 68 -26 14z"/>
<path d="M8910 3810 c36 -11 122 -11 140 0 10 7 -14 9 -75 9 -60 -1 -82 -4
-65 -9z"/>
</g>
</svg>
