<?xml version="1.0" standalone="no"?>
<!DOCTYPE svg PUBLIC "-//W3C//DTD SVG 20010904//EN"
 "http://www.w3.org/TR/2001/REC-SVG-20010904/DTD/svg10.dtd">
<svg version="1.0" xmlns="http://www.w3.org/2000/svg"
 width="1500.000000pt" height="1500.000000pt" viewBox="0 0 1500.000000 1500.000000"
 preserveAspectRatio="xMidYMid meet">

<g transform="translate(0.000000,1500.000000) scale(0.100000,-0.100000)"
fill="#000000" stroke="none">
<path d="M7170 13170 c-743 -64 -1415 -295 -2010 -693 -966 -646 -1618 -1649
-1815 -2791 -45 -262 -58 -459 -52 -791 6 -327 21 -476 77 -751 31 -156 96
-404 108 -416 4 -4 39 29 77 75 455 534 1295 1247 2011 1705 267 171 564 327
737 388 l79 27 -79 23 c-163 47 -287 120 -394 231 -144 149 -212 316 -195 480
6 62 30 150 45 166 4 4 50 -12 102 -37 195 -90 500 -181 764 -226 133 -22 376
-50 445 -50 l44 0 -59 61 c-232 236 -577 436 -885 514 -308 79 -628 68 -926
-29 -128 -42 -329 -148 -449 -237 -442 -327 -731 -860 -832 -1534 -16 -110
-18 -116 -24 -75 -19 127 -31 411 -26 590 14 453 103 835 274 1173 407 809
1275 1273 2274 1216 992 -56 1853 -604 2215 -1408 l43 -94 88 -23 c48 -12 106
-30 128 -39 71 -30 173 -104 231 -168 130 -143 204 -287 400 -774 106 -265
168 -392 288 -586 144 -235 325 -479 609 -825 227 -275 344 -430 380 -502 28
-56 32 -75 32 -140 -1 -79 -16 -122 -61 -170 -16 -17 -26 -46 -34 -95 -61
-392 -245 -552 -610 -531 -63 4 -205 20 -314 37 l-200 30 -52 -26 c-89 -43
-187 -167 -242 -305 -55 -137 -69 -350 -32 -496 23 -88 80 -215 134 -295 19
-29 34 -54 32 -56 -10 -10 -195 55 -273 96 -250 132 -455 355 -594 646 -82
173 -127 326 -164 556 l-5 36 -128 17 c-426 59 -667 124 -917 246 -327 161
-493 374 -496 635 0 84 -10 69 -41 -70 -28 -124 -28 -301 1 -408 69 -261 286
-471 589 -571 28 -10 52 -20 52 -22 0 -3 -24 -35 -54 -72 -80 -100 -131 -183
-201 -327 -199 -412 -369 -1014 -422 -1498 -14 -121 -14 -150 -4 -156 15 -10
160 -27 351 -43 171 -13 612 -4 780 17 752 93 1424 358 2016 798 1539 1142
2110 3159 1399 4947 -301 758 -862 1449 -1551 1913 -568 382 -1189 610 -1884
692 -159 19 -626 28 -780 15z"/>
</g>
</svg>
